G75*
%MOIN*%
%OFA0B0*%
%FSLAX25Y25*%
%IPPOS*%
%LPD*%
%AMOC8*
5,1,8,0,0,1.08239X$1,22.5*
%
%ADD10C,0.00000*%
D10*
X0026256Y0038933D02*
X0946256Y0038933D01*
X0939957Y0063933D02*
X0939959Y0064091D01*
X0939965Y0064249D01*
X0939975Y0064407D01*
X0939989Y0064565D01*
X0940007Y0064722D01*
X0940028Y0064879D01*
X0940054Y0065035D01*
X0940084Y0065191D01*
X0940117Y0065346D01*
X0940155Y0065499D01*
X0940196Y0065652D01*
X0940241Y0065804D01*
X0940290Y0065955D01*
X0940343Y0066104D01*
X0940399Y0066252D01*
X0940459Y0066398D01*
X0940523Y0066543D01*
X0940591Y0066686D01*
X0940662Y0066828D01*
X0940736Y0066968D01*
X0940814Y0067105D01*
X0940896Y0067241D01*
X0940980Y0067375D01*
X0941069Y0067506D01*
X0941160Y0067635D01*
X0941255Y0067762D01*
X0941352Y0067887D01*
X0941453Y0068009D01*
X0941557Y0068128D01*
X0941664Y0068245D01*
X0941774Y0068359D01*
X0941887Y0068470D01*
X0942002Y0068579D01*
X0942120Y0068684D01*
X0942241Y0068786D01*
X0942364Y0068886D01*
X0942490Y0068982D01*
X0942618Y0069075D01*
X0942748Y0069165D01*
X0942881Y0069251D01*
X0943016Y0069335D01*
X0943152Y0069414D01*
X0943291Y0069491D01*
X0943432Y0069563D01*
X0943574Y0069633D01*
X0943718Y0069698D01*
X0943864Y0069760D01*
X0944011Y0069818D01*
X0944160Y0069873D01*
X0944310Y0069924D01*
X0944461Y0069971D01*
X0944613Y0070014D01*
X0944766Y0070053D01*
X0944921Y0070089D01*
X0945076Y0070120D01*
X0945232Y0070148D01*
X0945388Y0070172D01*
X0945545Y0070192D01*
X0945703Y0070208D01*
X0945860Y0070220D01*
X0946019Y0070228D01*
X0946177Y0070232D01*
X0946335Y0070232D01*
X0946493Y0070228D01*
X0946652Y0070220D01*
X0946809Y0070208D01*
X0946967Y0070192D01*
X0947124Y0070172D01*
X0947280Y0070148D01*
X0947436Y0070120D01*
X0947591Y0070089D01*
X0947746Y0070053D01*
X0947899Y0070014D01*
X0948051Y0069971D01*
X0948202Y0069924D01*
X0948352Y0069873D01*
X0948501Y0069818D01*
X0948648Y0069760D01*
X0948794Y0069698D01*
X0948938Y0069633D01*
X0949080Y0069563D01*
X0949221Y0069491D01*
X0949360Y0069414D01*
X0949496Y0069335D01*
X0949631Y0069251D01*
X0949764Y0069165D01*
X0949894Y0069075D01*
X0950022Y0068982D01*
X0950148Y0068886D01*
X0950271Y0068786D01*
X0950392Y0068684D01*
X0950510Y0068579D01*
X0950625Y0068470D01*
X0950738Y0068359D01*
X0950848Y0068245D01*
X0950955Y0068128D01*
X0951059Y0068009D01*
X0951160Y0067887D01*
X0951257Y0067762D01*
X0951352Y0067635D01*
X0951443Y0067506D01*
X0951532Y0067375D01*
X0951616Y0067241D01*
X0951698Y0067105D01*
X0951776Y0066968D01*
X0951850Y0066828D01*
X0951921Y0066686D01*
X0951989Y0066543D01*
X0952053Y0066398D01*
X0952113Y0066252D01*
X0952169Y0066104D01*
X0952222Y0065955D01*
X0952271Y0065804D01*
X0952316Y0065652D01*
X0952357Y0065499D01*
X0952395Y0065346D01*
X0952428Y0065191D01*
X0952458Y0065035D01*
X0952484Y0064879D01*
X0952505Y0064722D01*
X0952523Y0064565D01*
X0952537Y0064407D01*
X0952547Y0064249D01*
X0952553Y0064091D01*
X0952555Y0063933D01*
X0952553Y0063775D01*
X0952547Y0063617D01*
X0952537Y0063459D01*
X0952523Y0063301D01*
X0952505Y0063144D01*
X0952484Y0062987D01*
X0952458Y0062831D01*
X0952428Y0062675D01*
X0952395Y0062520D01*
X0952357Y0062367D01*
X0952316Y0062214D01*
X0952271Y0062062D01*
X0952222Y0061911D01*
X0952169Y0061762D01*
X0952113Y0061614D01*
X0952053Y0061468D01*
X0951989Y0061323D01*
X0951921Y0061180D01*
X0951850Y0061038D01*
X0951776Y0060898D01*
X0951698Y0060761D01*
X0951616Y0060625D01*
X0951532Y0060491D01*
X0951443Y0060360D01*
X0951352Y0060231D01*
X0951257Y0060104D01*
X0951160Y0059979D01*
X0951059Y0059857D01*
X0950955Y0059738D01*
X0950848Y0059621D01*
X0950738Y0059507D01*
X0950625Y0059396D01*
X0950510Y0059287D01*
X0950392Y0059182D01*
X0950271Y0059080D01*
X0950148Y0058980D01*
X0950022Y0058884D01*
X0949894Y0058791D01*
X0949764Y0058701D01*
X0949631Y0058615D01*
X0949496Y0058531D01*
X0949360Y0058452D01*
X0949221Y0058375D01*
X0949080Y0058303D01*
X0948938Y0058233D01*
X0948794Y0058168D01*
X0948648Y0058106D01*
X0948501Y0058048D01*
X0948352Y0057993D01*
X0948202Y0057942D01*
X0948051Y0057895D01*
X0947899Y0057852D01*
X0947746Y0057813D01*
X0947591Y0057777D01*
X0947436Y0057746D01*
X0947280Y0057718D01*
X0947124Y0057694D01*
X0946967Y0057674D01*
X0946809Y0057658D01*
X0946652Y0057646D01*
X0946493Y0057638D01*
X0946335Y0057634D01*
X0946177Y0057634D01*
X0946019Y0057638D01*
X0945860Y0057646D01*
X0945703Y0057658D01*
X0945545Y0057674D01*
X0945388Y0057694D01*
X0945232Y0057718D01*
X0945076Y0057746D01*
X0944921Y0057777D01*
X0944766Y0057813D01*
X0944613Y0057852D01*
X0944461Y0057895D01*
X0944310Y0057942D01*
X0944160Y0057993D01*
X0944011Y0058048D01*
X0943864Y0058106D01*
X0943718Y0058168D01*
X0943574Y0058233D01*
X0943432Y0058303D01*
X0943291Y0058375D01*
X0943152Y0058452D01*
X0943016Y0058531D01*
X0942881Y0058615D01*
X0942748Y0058701D01*
X0942618Y0058791D01*
X0942490Y0058884D01*
X0942364Y0058980D01*
X0942241Y0059080D01*
X0942120Y0059182D01*
X0942002Y0059287D01*
X0941887Y0059396D01*
X0941774Y0059507D01*
X0941664Y0059621D01*
X0941557Y0059738D01*
X0941453Y0059857D01*
X0941352Y0059979D01*
X0941255Y0060104D01*
X0941160Y0060231D01*
X0941069Y0060360D01*
X0940980Y0060491D01*
X0940896Y0060625D01*
X0940814Y0060761D01*
X0940736Y0060898D01*
X0940662Y0061038D01*
X0940591Y0061180D01*
X0940523Y0061323D01*
X0940459Y0061468D01*
X0940399Y0061614D01*
X0940343Y0061762D01*
X0940290Y0061911D01*
X0940241Y0062062D01*
X0940196Y0062214D01*
X0940155Y0062367D01*
X0940117Y0062520D01*
X0940084Y0062675D01*
X0940054Y0062831D01*
X0940028Y0062987D01*
X0940007Y0063144D01*
X0939989Y0063301D01*
X0939975Y0063459D01*
X0939965Y0063617D01*
X0939959Y0063775D01*
X0939957Y0063933D01*
X0946256Y0038933D02*
X0946860Y0038940D01*
X0947464Y0038962D01*
X0948067Y0038999D01*
X0948669Y0039050D01*
X0949269Y0039115D01*
X0949868Y0039195D01*
X0950465Y0039290D01*
X0951059Y0039399D01*
X0951651Y0039522D01*
X0952239Y0039659D01*
X0952824Y0039811D01*
X0953405Y0039977D01*
X0953981Y0040157D01*
X0954554Y0040350D01*
X0955121Y0040558D01*
X0955683Y0040779D01*
X0956240Y0041013D01*
X0956791Y0041261D01*
X0957336Y0041522D01*
X0957874Y0041797D01*
X0958406Y0042084D01*
X0958930Y0042384D01*
X0959447Y0042696D01*
X0959956Y0043021D01*
X0960458Y0043358D01*
X0960951Y0043708D01*
X0961435Y0044069D01*
X0961911Y0044441D01*
X0962377Y0044825D01*
X0962834Y0045220D01*
X0963281Y0045626D01*
X0963719Y0046043D01*
X0964146Y0046470D01*
X0964563Y0046908D01*
X0964969Y0047355D01*
X0965364Y0047812D01*
X0965748Y0048278D01*
X0966120Y0048754D01*
X0966481Y0049238D01*
X0966831Y0049731D01*
X0967168Y0050233D01*
X0967493Y0050742D01*
X0967805Y0051259D01*
X0968105Y0051783D01*
X0968392Y0052315D01*
X0968667Y0052853D01*
X0968928Y0053398D01*
X0969176Y0053949D01*
X0969410Y0054506D01*
X0969631Y0055068D01*
X0969839Y0055635D01*
X0970032Y0056208D01*
X0970212Y0056784D01*
X0970378Y0057365D01*
X0970530Y0057950D01*
X0970667Y0058538D01*
X0970790Y0059130D01*
X0970899Y0059724D01*
X0970994Y0060321D01*
X0971074Y0060920D01*
X0971139Y0061520D01*
X0971190Y0062122D01*
X0971227Y0062725D01*
X0971249Y0063329D01*
X0971256Y0063933D01*
X0971256Y0403933D01*
X0939957Y0403933D02*
X0939959Y0404091D01*
X0939965Y0404249D01*
X0939975Y0404407D01*
X0939989Y0404565D01*
X0940007Y0404722D01*
X0940028Y0404879D01*
X0940054Y0405035D01*
X0940084Y0405191D01*
X0940117Y0405346D01*
X0940155Y0405499D01*
X0940196Y0405652D01*
X0940241Y0405804D01*
X0940290Y0405955D01*
X0940343Y0406104D01*
X0940399Y0406252D01*
X0940459Y0406398D01*
X0940523Y0406543D01*
X0940591Y0406686D01*
X0940662Y0406828D01*
X0940736Y0406968D01*
X0940814Y0407105D01*
X0940896Y0407241D01*
X0940980Y0407375D01*
X0941069Y0407506D01*
X0941160Y0407635D01*
X0941255Y0407762D01*
X0941352Y0407887D01*
X0941453Y0408009D01*
X0941557Y0408128D01*
X0941664Y0408245D01*
X0941774Y0408359D01*
X0941887Y0408470D01*
X0942002Y0408579D01*
X0942120Y0408684D01*
X0942241Y0408786D01*
X0942364Y0408886D01*
X0942490Y0408982D01*
X0942618Y0409075D01*
X0942748Y0409165D01*
X0942881Y0409251D01*
X0943016Y0409335D01*
X0943152Y0409414D01*
X0943291Y0409491D01*
X0943432Y0409563D01*
X0943574Y0409633D01*
X0943718Y0409698D01*
X0943864Y0409760D01*
X0944011Y0409818D01*
X0944160Y0409873D01*
X0944310Y0409924D01*
X0944461Y0409971D01*
X0944613Y0410014D01*
X0944766Y0410053D01*
X0944921Y0410089D01*
X0945076Y0410120D01*
X0945232Y0410148D01*
X0945388Y0410172D01*
X0945545Y0410192D01*
X0945703Y0410208D01*
X0945860Y0410220D01*
X0946019Y0410228D01*
X0946177Y0410232D01*
X0946335Y0410232D01*
X0946493Y0410228D01*
X0946652Y0410220D01*
X0946809Y0410208D01*
X0946967Y0410192D01*
X0947124Y0410172D01*
X0947280Y0410148D01*
X0947436Y0410120D01*
X0947591Y0410089D01*
X0947746Y0410053D01*
X0947899Y0410014D01*
X0948051Y0409971D01*
X0948202Y0409924D01*
X0948352Y0409873D01*
X0948501Y0409818D01*
X0948648Y0409760D01*
X0948794Y0409698D01*
X0948938Y0409633D01*
X0949080Y0409563D01*
X0949221Y0409491D01*
X0949360Y0409414D01*
X0949496Y0409335D01*
X0949631Y0409251D01*
X0949764Y0409165D01*
X0949894Y0409075D01*
X0950022Y0408982D01*
X0950148Y0408886D01*
X0950271Y0408786D01*
X0950392Y0408684D01*
X0950510Y0408579D01*
X0950625Y0408470D01*
X0950738Y0408359D01*
X0950848Y0408245D01*
X0950955Y0408128D01*
X0951059Y0408009D01*
X0951160Y0407887D01*
X0951257Y0407762D01*
X0951352Y0407635D01*
X0951443Y0407506D01*
X0951532Y0407375D01*
X0951616Y0407241D01*
X0951698Y0407105D01*
X0951776Y0406968D01*
X0951850Y0406828D01*
X0951921Y0406686D01*
X0951989Y0406543D01*
X0952053Y0406398D01*
X0952113Y0406252D01*
X0952169Y0406104D01*
X0952222Y0405955D01*
X0952271Y0405804D01*
X0952316Y0405652D01*
X0952357Y0405499D01*
X0952395Y0405346D01*
X0952428Y0405191D01*
X0952458Y0405035D01*
X0952484Y0404879D01*
X0952505Y0404722D01*
X0952523Y0404565D01*
X0952537Y0404407D01*
X0952547Y0404249D01*
X0952553Y0404091D01*
X0952555Y0403933D01*
X0952553Y0403775D01*
X0952547Y0403617D01*
X0952537Y0403459D01*
X0952523Y0403301D01*
X0952505Y0403144D01*
X0952484Y0402987D01*
X0952458Y0402831D01*
X0952428Y0402675D01*
X0952395Y0402520D01*
X0952357Y0402367D01*
X0952316Y0402214D01*
X0952271Y0402062D01*
X0952222Y0401911D01*
X0952169Y0401762D01*
X0952113Y0401614D01*
X0952053Y0401468D01*
X0951989Y0401323D01*
X0951921Y0401180D01*
X0951850Y0401038D01*
X0951776Y0400898D01*
X0951698Y0400761D01*
X0951616Y0400625D01*
X0951532Y0400491D01*
X0951443Y0400360D01*
X0951352Y0400231D01*
X0951257Y0400104D01*
X0951160Y0399979D01*
X0951059Y0399857D01*
X0950955Y0399738D01*
X0950848Y0399621D01*
X0950738Y0399507D01*
X0950625Y0399396D01*
X0950510Y0399287D01*
X0950392Y0399182D01*
X0950271Y0399080D01*
X0950148Y0398980D01*
X0950022Y0398884D01*
X0949894Y0398791D01*
X0949764Y0398701D01*
X0949631Y0398615D01*
X0949496Y0398531D01*
X0949360Y0398452D01*
X0949221Y0398375D01*
X0949080Y0398303D01*
X0948938Y0398233D01*
X0948794Y0398168D01*
X0948648Y0398106D01*
X0948501Y0398048D01*
X0948352Y0397993D01*
X0948202Y0397942D01*
X0948051Y0397895D01*
X0947899Y0397852D01*
X0947746Y0397813D01*
X0947591Y0397777D01*
X0947436Y0397746D01*
X0947280Y0397718D01*
X0947124Y0397694D01*
X0946967Y0397674D01*
X0946809Y0397658D01*
X0946652Y0397646D01*
X0946493Y0397638D01*
X0946335Y0397634D01*
X0946177Y0397634D01*
X0946019Y0397638D01*
X0945860Y0397646D01*
X0945703Y0397658D01*
X0945545Y0397674D01*
X0945388Y0397694D01*
X0945232Y0397718D01*
X0945076Y0397746D01*
X0944921Y0397777D01*
X0944766Y0397813D01*
X0944613Y0397852D01*
X0944461Y0397895D01*
X0944310Y0397942D01*
X0944160Y0397993D01*
X0944011Y0398048D01*
X0943864Y0398106D01*
X0943718Y0398168D01*
X0943574Y0398233D01*
X0943432Y0398303D01*
X0943291Y0398375D01*
X0943152Y0398452D01*
X0943016Y0398531D01*
X0942881Y0398615D01*
X0942748Y0398701D01*
X0942618Y0398791D01*
X0942490Y0398884D01*
X0942364Y0398980D01*
X0942241Y0399080D01*
X0942120Y0399182D01*
X0942002Y0399287D01*
X0941887Y0399396D01*
X0941774Y0399507D01*
X0941664Y0399621D01*
X0941557Y0399738D01*
X0941453Y0399857D01*
X0941352Y0399979D01*
X0941255Y0400104D01*
X0941160Y0400231D01*
X0941069Y0400360D01*
X0940980Y0400491D01*
X0940896Y0400625D01*
X0940814Y0400761D01*
X0940736Y0400898D01*
X0940662Y0401038D01*
X0940591Y0401180D01*
X0940523Y0401323D01*
X0940459Y0401468D01*
X0940399Y0401614D01*
X0940343Y0401762D01*
X0940290Y0401911D01*
X0940241Y0402062D01*
X0940196Y0402214D01*
X0940155Y0402367D01*
X0940117Y0402520D01*
X0940084Y0402675D01*
X0940054Y0402831D01*
X0940028Y0402987D01*
X0940007Y0403144D01*
X0939989Y0403301D01*
X0939975Y0403459D01*
X0939965Y0403617D01*
X0939959Y0403775D01*
X0939957Y0403933D01*
X0946256Y0428933D02*
X0946860Y0428926D01*
X0947464Y0428904D01*
X0948067Y0428867D01*
X0948669Y0428816D01*
X0949269Y0428751D01*
X0949868Y0428671D01*
X0950465Y0428576D01*
X0951059Y0428467D01*
X0951651Y0428344D01*
X0952239Y0428207D01*
X0952824Y0428055D01*
X0953405Y0427889D01*
X0953981Y0427709D01*
X0954554Y0427516D01*
X0955121Y0427308D01*
X0955683Y0427087D01*
X0956240Y0426853D01*
X0956791Y0426605D01*
X0957336Y0426344D01*
X0957874Y0426069D01*
X0958406Y0425782D01*
X0958930Y0425482D01*
X0959447Y0425170D01*
X0959956Y0424845D01*
X0960458Y0424508D01*
X0960951Y0424158D01*
X0961435Y0423797D01*
X0961911Y0423425D01*
X0962377Y0423041D01*
X0962834Y0422646D01*
X0963281Y0422240D01*
X0963719Y0421823D01*
X0964146Y0421396D01*
X0964563Y0420958D01*
X0964969Y0420511D01*
X0965364Y0420054D01*
X0965748Y0419588D01*
X0966120Y0419112D01*
X0966481Y0418628D01*
X0966831Y0418135D01*
X0967168Y0417633D01*
X0967493Y0417124D01*
X0967805Y0416607D01*
X0968105Y0416083D01*
X0968392Y0415551D01*
X0968667Y0415013D01*
X0968928Y0414468D01*
X0969176Y0413917D01*
X0969410Y0413360D01*
X0969631Y0412798D01*
X0969839Y0412231D01*
X0970032Y0411658D01*
X0970212Y0411082D01*
X0970378Y0410501D01*
X0970530Y0409916D01*
X0970667Y0409328D01*
X0970790Y0408736D01*
X0970899Y0408142D01*
X0970994Y0407545D01*
X0971074Y0406946D01*
X0971139Y0406346D01*
X0971190Y0405744D01*
X0971227Y0405141D01*
X0971249Y0404537D01*
X0971256Y0403933D01*
X0946256Y0428933D02*
X0026256Y0428933D01*
X0019957Y0403933D02*
X0019959Y0404091D01*
X0019965Y0404249D01*
X0019975Y0404407D01*
X0019989Y0404565D01*
X0020007Y0404722D01*
X0020028Y0404879D01*
X0020054Y0405035D01*
X0020084Y0405191D01*
X0020117Y0405346D01*
X0020155Y0405499D01*
X0020196Y0405652D01*
X0020241Y0405804D01*
X0020290Y0405955D01*
X0020343Y0406104D01*
X0020399Y0406252D01*
X0020459Y0406398D01*
X0020523Y0406543D01*
X0020591Y0406686D01*
X0020662Y0406828D01*
X0020736Y0406968D01*
X0020814Y0407105D01*
X0020896Y0407241D01*
X0020980Y0407375D01*
X0021069Y0407506D01*
X0021160Y0407635D01*
X0021255Y0407762D01*
X0021352Y0407887D01*
X0021453Y0408009D01*
X0021557Y0408128D01*
X0021664Y0408245D01*
X0021774Y0408359D01*
X0021887Y0408470D01*
X0022002Y0408579D01*
X0022120Y0408684D01*
X0022241Y0408786D01*
X0022364Y0408886D01*
X0022490Y0408982D01*
X0022618Y0409075D01*
X0022748Y0409165D01*
X0022881Y0409251D01*
X0023016Y0409335D01*
X0023152Y0409414D01*
X0023291Y0409491D01*
X0023432Y0409563D01*
X0023574Y0409633D01*
X0023718Y0409698D01*
X0023864Y0409760D01*
X0024011Y0409818D01*
X0024160Y0409873D01*
X0024310Y0409924D01*
X0024461Y0409971D01*
X0024613Y0410014D01*
X0024766Y0410053D01*
X0024921Y0410089D01*
X0025076Y0410120D01*
X0025232Y0410148D01*
X0025388Y0410172D01*
X0025545Y0410192D01*
X0025703Y0410208D01*
X0025860Y0410220D01*
X0026019Y0410228D01*
X0026177Y0410232D01*
X0026335Y0410232D01*
X0026493Y0410228D01*
X0026652Y0410220D01*
X0026809Y0410208D01*
X0026967Y0410192D01*
X0027124Y0410172D01*
X0027280Y0410148D01*
X0027436Y0410120D01*
X0027591Y0410089D01*
X0027746Y0410053D01*
X0027899Y0410014D01*
X0028051Y0409971D01*
X0028202Y0409924D01*
X0028352Y0409873D01*
X0028501Y0409818D01*
X0028648Y0409760D01*
X0028794Y0409698D01*
X0028938Y0409633D01*
X0029080Y0409563D01*
X0029221Y0409491D01*
X0029360Y0409414D01*
X0029496Y0409335D01*
X0029631Y0409251D01*
X0029764Y0409165D01*
X0029894Y0409075D01*
X0030022Y0408982D01*
X0030148Y0408886D01*
X0030271Y0408786D01*
X0030392Y0408684D01*
X0030510Y0408579D01*
X0030625Y0408470D01*
X0030738Y0408359D01*
X0030848Y0408245D01*
X0030955Y0408128D01*
X0031059Y0408009D01*
X0031160Y0407887D01*
X0031257Y0407762D01*
X0031352Y0407635D01*
X0031443Y0407506D01*
X0031532Y0407375D01*
X0031616Y0407241D01*
X0031698Y0407105D01*
X0031776Y0406968D01*
X0031850Y0406828D01*
X0031921Y0406686D01*
X0031989Y0406543D01*
X0032053Y0406398D01*
X0032113Y0406252D01*
X0032169Y0406104D01*
X0032222Y0405955D01*
X0032271Y0405804D01*
X0032316Y0405652D01*
X0032357Y0405499D01*
X0032395Y0405346D01*
X0032428Y0405191D01*
X0032458Y0405035D01*
X0032484Y0404879D01*
X0032505Y0404722D01*
X0032523Y0404565D01*
X0032537Y0404407D01*
X0032547Y0404249D01*
X0032553Y0404091D01*
X0032555Y0403933D01*
X0032553Y0403775D01*
X0032547Y0403617D01*
X0032537Y0403459D01*
X0032523Y0403301D01*
X0032505Y0403144D01*
X0032484Y0402987D01*
X0032458Y0402831D01*
X0032428Y0402675D01*
X0032395Y0402520D01*
X0032357Y0402367D01*
X0032316Y0402214D01*
X0032271Y0402062D01*
X0032222Y0401911D01*
X0032169Y0401762D01*
X0032113Y0401614D01*
X0032053Y0401468D01*
X0031989Y0401323D01*
X0031921Y0401180D01*
X0031850Y0401038D01*
X0031776Y0400898D01*
X0031698Y0400761D01*
X0031616Y0400625D01*
X0031532Y0400491D01*
X0031443Y0400360D01*
X0031352Y0400231D01*
X0031257Y0400104D01*
X0031160Y0399979D01*
X0031059Y0399857D01*
X0030955Y0399738D01*
X0030848Y0399621D01*
X0030738Y0399507D01*
X0030625Y0399396D01*
X0030510Y0399287D01*
X0030392Y0399182D01*
X0030271Y0399080D01*
X0030148Y0398980D01*
X0030022Y0398884D01*
X0029894Y0398791D01*
X0029764Y0398701D01*
X0029631Y0398615D01*
X0029496Y0398531D01*
X0029360Y0398452D01*
X0029221Y0398375D01*
X0029080Y0398303D01*
X0028938Y0398233D01*
X0028794Y0398168D01*
X0028648Y0398106D01*
X0028501Y0398048D01*
X0028352Y0397993D01*
X0028202Y0397942D01*
X0028051Y0397895D01*
X0027899Y0397852D01*
X0027746Y0397813D01*
X0027591Y0397777D01*
X0027436Y0397746D01*
X0027280Y0397718D01*
X0027124Y0397694D01*
X0026967Y0397674D01*
X0026809Y0397658D01*
X0026652Y0397646D01*
X0026493Y0397638D01*
X0026335Y0397634D01*
X0026177Y0397634D01*
X0026019Y0397638D01*
X0025860Y0397646D01*
X0025703Y0397658D01*
X0025545Y0397674D01*
X0025388Y0397694D01*
X0025232Y0397718D01*
X0025076Y0397746D01*
X0024921Y0397777D01*
X0024766Y0397813D01*
X0024613Y0397852D01*
X0024461Y0397895D01*
X0024310Y0397942D01*
X0024160Y0397993D01*
X0024011Y0398048D01*
X0023864Y0398106D01*
X0023718Y0398168D01*
X0023574Y0398233D01*
X0023432Y0398303D01*
X0023291Y0398375D01*
X0023152Y0398452D01*
X0023016Y0398531D01*
X0022881Y0398615D01*
X0022748Y0398701D01*
X0022618Y0398791D01*
X0022490Y0398884D01*
X0022364Y0398980D01*
X0022241Y0399080D01*
X0022120Y0399182D01*
X0022002Y0399287D01*
X0021887Y0399396D01*
X0021774Y0399507D01*
X0021664Y0399621D01*
X0021557Y0399738D01*
X0021453Y0399857D01*
X0021352Y0399979D01*
X0021255Y0400104D01*
X0021160Y0400231D01*
X0021069Y0400360D01*
X0020980Y0400491D01*
X0020896Y0400625D01*
X0020814Y0400761D01*
X0020736Y0400898D01*
X0020662Y0401038D01*
X0020591Y0401180D01*
X0020523Y0401323D01*
X0020459Y0401468D01*
X0020399Y0401614D01*
X0020343Y0401762D01*
X0020290Y0401911D01*
X0020241Y0402062D01*
X0020196Y0402214D01*
X0020155Y0402367D01*
X0020117Y0402520D01*
X0020084Y0402675D01*
X0020054Y0402831D01*
X0020028Y0402987D01*
X0020007Y0403144D01*
X0019989Y0403301D01*
X0019975Y0403459D01*
X0019965Y0403617D01*
X0019959Y0403775D01*
X0019957Y0403933D01*
X0001256Y0403933D02*
X0001263Y0404537D01*
X0001285Y0405141D01*
X0001322Y0405744D01*
X0001373Y0406346D01*
X0001438Y0406946D01*
X0001518Y0407545D01*
X0001613Y0408142D01*
X0001722Y0408736D01*
X0001845Y0409328D01*
X0001982Y0409916D01*
X0002134Y0410501D01*
X0002300Y0411082D01*
X0002480Y0411658D01*
X0002673Y0412231D01*
X0002881Y0412798D01*
X0003102Y0413360D01*
X0003336Y0413917D01*
X0003584Y0414468D01*
X0003845Y0415013D01*
X0004120Y0415551D01*
X0004407Y0416083D01*
X0004707Y0416607D01*
X0005019Y0417124D01*
X0005344Y0417633D01*
X0005681Y0418135D01*
X0006031Y0418628D01*
X0006392Y0419112D01*
X0006764Y0419588D01*
X0007148Y0420054D01*
X0007543Y0420511D01*
X0007949Y0420958D01*
X0008366Y0421396D01*
X0008793Y0421823D01*
X0009231Y0422240D01*
X0009678Y0422646D01*
X0010135Y0423041D01*
X0010601Y0423425D01*
X0011077Y0423797D01*
X0011561Y0424158D01*
X0012054Y0424508D01*
X0012556Y0424845D01*
X0013065Y0425170D01*
X0013582Y0425482D01*
X0014106Y0425782D01*
X0014638Y0426069D01*
X0015176Y0426344D01*
X0015721Y0426605D01*
X0016272Y0426853D01*
X0016829Y0427087D01*
X0017391Y0427308D01*
X0017958Y0427516D01*
X0018531Y0427709D01*
X0019107Y0427889D01*
X0019688Y0428055D01*
X0020273Y0428207D01*
X0020861Y0428344D01*
X0021453Y0428467D01*
X0022047Y0428576D01*
X0022644Y0428671D01*
X0023243Y0428751D01*
X0023843Y0428816D01*
X0024445Y0428867D01*
X0025048Y0428904D01*
X0025652Y0428926D01*
X0026256Y0428933D01*
X0001256Y0403933D02*
X0001256Y0063933D01*
X0019957Y0063933D02*
X0019959Y0064091D01*
X0019965Y0064249D01*
X0019975Y0064407D01*
X0019989Y0064565D01*
X0020007Y0064722D01*
X0020028Y0064879D01*
X0020054Y0065035D01*
X0020084Y0065191D01*
X0020117Y0065346D01*
X0020155Y0065499D01*
X0020196Y0065652D01*
X0020241Y0065804D01*
X0020290Y0065955D01*
X0020343Y0066104D01*
X0020399Y0066252D01*
X0020459Y0066398D01*
X0020523Y0066543D01*
X0020591Y0066686D01*
X0020662Y0066828D01*
X0020736Y0066968D01*
X0020814Y0067105D01*
X0020896Y0067241D01*
X0020980Y0067375D01*
X0021069Y0067506D01*
X0021160Y0067635D01*
X0021255Y0067762D01*
X0021352Y0067887D01*
X0021453Y0068009D01*
X0021557Y0068128D01*
X0021664Y0068245D01*
X0021774Y0068359D01*
X0021887Y0068470D01*
X0022002Y0068579D01*
X0022120Y0068684D01*
X0022241Y0068786D01*
X0022364Y0068886D01*
X0022490Y0068982D01*
X0022618Y0069075D01*
X0022748Y0069165D01*
X0022881Y0069251D01*
X0023016Y0069335D01*
X0023152Y0069414D01*
X0023291Y0069491D01*
X0023432Y0069563D01*
X0023574Y0069633D01*
X0023718Y0069698D01*
X0023864Y0069760D01*
X0024011Y0069818D01*
X0024160Y0069873D01*
X0024310Y0069924D01*
X0024461Y0069971D01*
X0024613Y0070014D01*
X0024766Y0070053D01*
X0024921Y0070089D01*
X0025076Y0070120D01*
X0025232Y0070148D01*
X0025388Y0070172D01*
X0025545Y0070192D01*
X0025703Y0070208D01*
X0025860Y0070220D01*
X0026019Y0070228D01*
X0026177Y0070232D01*
X0026335Y0070232D01*
X0026493Y0070228D01*
X0026652Y0070220D01*
X0026809Y0070208D01*
X0026967Y0070192D01*
X0027124Y0070172D01*
X0027280Y0070148D01*
X0027436Y0070120D01*
X0027591Y0070089D01*
X0027746Y0070053D01*
X0027899Y0070014D01*
X0028051Y0069971D01*
X0028202Y0069924D01*
X0028352Y0069873D01*
X0028501Y0069818D01*
X0028648Y0069760D01*
X0028794Y0069698D01*
X0028938Y0069633D01*
X0029080Y0069563D01*
X0029221Y0069491D01*
X0029360Y0069414D01*
X0029496Y0069335D01*
X0029631Y0069251D01*
X0029764Y0069165D01*
X0029894Y0069075D01*
X0030022Y0068982D01*
X0030148Y0068886D01*
X0030271Y0068786D01*
X0030392Y0068684D01*
X0030510Y0068579D01*
X0030625Y0068470D01*
X0030738Y0068359D01*
X0030848Y0068245D01*
X0030955Y0068128D01*
X0031059Y0068009D01*
X0031160Y0067887D01*
X0031257Y0067762D01*
X0031352Y0067635D01*
X0031443Y0067506D01*
X0031532Y0067375D01*
X0031616Y0067241D01*
X0031698Y0067105D01*
X0031776Y0066968D01*
X0031850Y0066828D01*
X0031921Y0066686D01*
X0031989Y0066543D01*
X0032053Y0066398D01*
X0032113Y0066252D01*
X0032169Y0066104D01*
X0032222Y0065955D01*
X0032271Y0065804D01*
X0032316Y0065652D01*
X0032357Y0065499D01*
X0032395Y0065346D01*
X0032428Y0065191D01*
X0032458Y0065035D01*
X0032484Y0064879D01*
X0032505Y0064722D01*
X0032523Y0064565D01*
X0032537Y0064407D01*
X0032547Y0064249D01*
X0032553Y0064091D01*
X0032555Y0063933D01*
X0032553Y0063775D01*
X0032547Y0063617D01*
X0032537Y0063459D01*
X0032523Y0063301D01*
X0032505Y0063144D01*
X0032484Y0062987D01*
X0032458Y0062831D01*
X0032428Y0062675D01*
X0032395Y0062520D01*
X0032357Y0062367D01*
X0032316Y0062214D01*
X0032271Y0062062D01*
X0032222Y0061911D01*
X0032169Y0061762D01*
X0032113Y0061614D01*
X0032053Y0061468D01*
X0031989Y0061323D01*
X0031921Y0061180D01*
X0031850Y0061038D01*
X0031776Y0060898D01*
X0031698Y0060761D01*
X0031616Y0060625D01*
X0031532Y0060491D01*
X0031443Y0060360D01*
X0031352Y0060231D01*
X0031257Y0060104D01*
X0031160Y0059979D01*
X0031059Y0059857D01*
X0030955Y0059738D01*
X0030848Y0059621D01*
X0030738Y0059507D01*
X0030625Y0059396D01*
X0030510Y0059287D01*
X0030392Y0059182D01*
X0030271Y0059080D01*
X0030148Y0058980D01*
X0030022Y0058884D01*
X0029894Y0058791D01*
X0029764Y0058701D01*
X0029631Y0058615D01*
X0029496Y0058531D01*
X0029360Y0058452D01*
X0029221Y0058375D01*
X0029080Y0058303D01*
X0028938Y0058233D01*
X0028794Y0058168D01*
X0028648Y0058106D01*
X0028501Y0058048D01*
X0028352Y0057993D01*
X0028202Y0057942D01*
X0028051Y0057895D01*
X0027899Y0057852D01*
X0027746Y0057813D01*
X0027591Y0057777D01*
X0027436Y0057746D01*
X0027280Y0057718D01*
X0027124Y0057694D01*
X0026967Y0057674D01*
X0026809Y0057658D01*
X0026652Y0057646D01*
X0026493Y0057638D01*
X0026335Y0057634D01*
X0026177Y0057634D01*
X0026019Y0057638D01*
X0025860Y0057646D01*
X0025703Y0057658D01*
X0025545Y0057674D01*
X0025388Y0057694D01*
X0025232Y0057718D01*
X0025076Y0057746D01*
X0024921Y0057777D01*
X0024766Y0057813D01*
X0024613Y0057852D01*
X0024461Y0057895D01*
X0024310Y0057942D01*
X0024160Y0057993D01*
X0024011Y0058048D01*
X0023864Y0058106D01*
X0023718Y0058168D01*
X0023574Y0058233D01*
X0023432Y0058303D01*
X0023291Y0058375D01*
X0023152Y0058452D01*
X0023016Y0058531D01*
X0022881Y0058615D01*
X0022748Y0058701D01*
X0022618Y0058791D01*
X0022490Y0058884D01*
X0022364Y0058980D01*
X0022241Y0059080D01*
X0022120Y0059182D01*
X0022002Y0059287D01*
X0021887Y0059396D01*
X0021774Y0059507D01*
X0021664Y0059621D01*
X0021557Y0059738D01*
X0021453Y0059857D01*
X0021352Y0059979D01*
X0021255Y0060104D01*
X0021160Y0060231D01*
X0021069Y0060360D01*
X0020980Y0060491D01*
X0020896Y0060625D01*
X0020814Y0060761D01*
X0020736Y0060898D01*
X0020662Y0061038D01*
X0020591Y0061180D01*
X0020523Y0061323D01*
X0020459Y0061468D01*
X0020399Y0061614D01*
X0020343Y0061762D01*
X0020290Y0061911D01*
X0020241Y0062062D01*
X0020196Y0062214D01*
X0020155Y0062367D01*
X0020117Y0062520D01*
X0020084Y0062675D01*
X0020054Y0062831D01*
X0020028Y0062987D01*
X0020007Y0063144D01*
X0019989Y0063301D01*
X0019975Y0063459D01*
X0019965Y0063617D01*
X0019959Y0063775D01*
X0019957Y0063933D01*
X0001256Y0063933D02*
X0001263Y0063329D01*
X0001285Y0062725D01*
X0001322Y0062122D01*
X0001373Y0061520D01*
X0001438Y0060920D01*
X0001518Y0060321D01*
X0001613Y0059724D01*
X0001722Y0059130D01*
X0001845Y0058538D01*
X0001982Y0057950D01*
X0002134Y0057365D01*
X0002300Y0056784D01*
X0002480Y0056208D01*
X0002673Y0055635D01*
X0002881Y0055068D01*
X0003102Y0054506D01*
X0003336Y0053949D01*
X0003584Y0053398D01*
X0003845Y0052853D01*
X0004120Y0052315D01*
X0004407Y0051783D01*
X0004707Y0051259D01*
X0005019Y0050742D01*
X0005344Y0050233D01*
X0005681Y0049731D01*
X0006031Y0049238D01*
X0006392Y0048754D01*
X0006764Y0048278D01*
X0007148Y0047812D01*
X0007543Y0047355D01*
X0007949Y0046908D01*
X0008366Y0046470D01*
X0008793Y0046043D01*
X0009231Y0045626D01*
X0009678Y0045220D01*
X0010135Y0044825D01*
X0010601Y0044441D01*
X0011077Y0044069D01*
X0011561Y0043708D01*
X0012054Y0043358D01*
X0012556Y0043021D01*
X0013065Y0042696D01*
X0013582Y0042384D01*
X0014106Y0042084D01*
X0014638Y0041797D01*
X0015176Y0041522D01*
X0015721Y0041261D01*
X0016272Y0041013D01*
X0016829Y0040779D01*
X0017391Y0040558D01*
X0017958Y0040350D01*
X0018531Y0040157D01*
X0019107Y0039977D01*
X0019688Y0039811D01*
X0020273Y0039659D01*
X0020861Y0039522D01*
X0021453Y0039399D01*
X0022047Y0039290D01*
X0022644Y0039195D01*
X0023243Y0039115D01*
X0023843Y0039050D01*
X0024445Y0038999D01*
X0025048Y0038962D01*
X0025652Y0038940D01*
X0026256Y0038933D01*
M02*
