G75*
%MOIN*%
%OFA0B0*%
%FSLAX25Y25*%
%IPPOS*%
%LPD*%
%AMOC8*
5,1,8,0,0,1.08239X$1,22.5*
%
%ADD10C,0.00512*%
%ADD11C,0.00600*%
D10*
X0001256Y0001256D02*
X0001256Y0028933D01*
X0001512Y0008933D02*
X0011492Y0007909D01*
X0011492Y0007676D02*
X0001512Y0008933D01*
X0011492Y0009957D01*
X0011492Y0010190D02*
X0011492Y0007676D01*
X0011492Y0008421D02*
X0001512Y0008933D01*
X0011492Y0009445D01*
X0011492Y0010190D02*
X0001512Y0008933D01*
X0971000Y0008933D01*
X0961020Y0007909D01*
X0961020Y0007676D02*
X0971000Y0008933D01*
X0961020Y0009957D01*
X0961020Y0010190D02*
X0961020Y0007676D01*
X0961020Y0008421D02*
X0971000Y0008933D01*
X0961020Y0009445D01*
X0961020Y0010190D02*
X0971000Y0008933D01*
X0971256Y0001256D02*
X0971256Y0028933D01*
X0996256Y0038933D02*
X1013933Y0038933D01*
X1006256Y0039189D02*
X1007280Y0049169D01*
X1007513Y0049169D02*
X1006256Y0039189D01*
X1005232Y0049169D01*
X1004999Y0049169D02*
X1007513Y0049169D01*
X1006768Y0049169D02*
X1006256Y0039189D01*
X1005744Y0049169D01*
X1004999Y0049169D02*
X1006256Y0039189D01*
X1006256Y0428677D01*
X1007280Y0418697D01*
X1007513Y0418697D02*
X1006256Y0428677D01*
X1005232Y0418697D01*
X1004999Y0418697D02*
X1007513Y0418697D01*
X1006768Y0418697D02*
X1006256Y0428677D01*
X1005744Y0418697D01*
X1004999Y0418697D02*
X1006256Y0428677D01*
X1013933Y0428933D02*
X0996256Y0428933D01*
D11*
X1001561Y0246149D02*
X1001916Y0246149D01*
X1001561Y0246149D02*
X1001487Y0246147D01*
X1001412Y0246141D01*
X1001339Y0246131D01*
X1001265Y0246118D01*
X1001193Y0246101D01*
X1001122Y0246079D01*
X1001051Y0246055D01*
X1000983Y0246026D01*
X1000915Y0245994D01*
X1000850Y0245958D01*
X1000787Y0245920D01*
X1000725Y0245877D01*
X1000666Y0245832D01*
X1000609Y0245784D01*
X1000555Y0245733D01*
X1000504Y0245679D01*
X1000456Y0245622D01*
X1000411Y0245563D01*
X1000368Y0245501D01*
X1000330Y0245438D01*
X1000294Y0245373D01*
X1000262Y0245305D01*
X1000233Y0245237D01*
X1000209Y0245166D01*
X1000187Y0245095D01*
X1000170Y0245023D01*
X1000157Y0244949D01*
X1000147Y0244876D01*
X1000141Y0244801D01*
X1000139Y0244727D01*
X1000139Y0242594D01*
X1001916Y0242594D01*
X1002805Y0236973D02*
X1002678Y0236913D01*
X1002549Y0236857D01*
X1002419Y0236804D01*
X1002287Y0236754D01*
X1002154Y0236708D01*
X1002020Y0236666D01*
X1001885Y0236627D01*
X1001748Y0236591D01*
X1001611Y0236560D01*
X1001473Y0236532D01*
X1001335Y0236507D01*
X1001196Y0236487D01*
X1001056Y0236470D01*
X1000916Y0236457D01*
X1000775Y0236448D01*
X1000635Y0236442D01*
X1000494Y0236440D01*
X1000494Y0239995D02*
X1000353Y0239993D01*
X1000213Y0239987D01*
X1000072Y0239978D01*
X0999932Y0239965D01*
X0999792Y0239948D01*
X0999653Y0239928D01*
X0999515Y0239903D01*
X0999377Y0239875D01*
X0999240Y0239844D01*
X0999103Y0239808D01*
X0998968Y0239769D01*
X0998834Y0239727D01*
X0998701Y0239681D01*
X0998569Y0239631D01*
X0998439Y0239578D01*
X0998310Y0239522D01*
X0998183Y0239462D01*
X0998716Y0239640D02*
X1002272Y0236795D01*
X1003695Y0238217D02*
X1003693Y0238288D01*
X1003687Y0238359D01*
X1003678Y0238429D01*
X1003664Y0238499D01*
X1003647Y0238568D01*
X1003627Y0238635D01*
X1003602Y0238702D01*
X1003574Y0238767D01*
X1003543Y0238831D01*
X1003508Y0238893D01*
X1003470Y0238953D01*
X1003429Y0239010D01*
X1003385Y0239066D01*
X1003337Y0239119D01*
X1003287Y0239169D01*
X1003235Y0239217D01*
X1003180Y0239262D01*
X1003122Y0239303D01*
X1003062Y0239342D01*
X1003001Y0239377D01*
X1002937Y0239409D01*
X1002872Y0239437D01*
X1002806Y0239462D01*
X1003695Y0238217D02*
X1003693Y0238146D01*
X1003687Y0238075D01*
X1003678Y0238005D01*
X1003664Y0237935D01*
X1003647Y0237866D01*
X1003627Y0237799D01*
X1003602Y0237732D01*
X1003574Y0237667D01*
X1003543Y0237603D01*
X1003508Y0237541D01*
X1003470Y0237481D01*
X1003429Y0237423D01*
X1003385Y0237368D01*
X1003337Y0237315D01*
X1003287Y0237265D01*
X1003235Y0237217D01*
X1003180Y0237172D01*
X1003122Y0237131D01*
X1003062Y0237092D01*
X1003001Y0237057D01*
X1002937Y0237025D01*
X1002872Y0236997D01*
X1002806Y0236972D01*
X1003339Y0234087D02*
X1003694Y0234087D01*
X1003694Y0233732D01*
X1003339Y0233732D01*
X1003339Y0234087D01*
X1002805Y0239462D02*
X1002678Y0239522D01*
X1002549Y0239578D01*
X1002419Y0239631D01*
X1002287Y0239681D01*
X1002154Y0239727D01*
X1002020Y0239769D01*
X1001885Y0239808D01*
X1001748Y0239844D01*
X1001611Y0239875D01*
X1001473Y0239903D01*
X1001335Y0239928D01*
X1001196Y0239948D01*
X1001056Y0239965D01*
X1000916Y0239978D01*
X1000775Y0239987D01*
X1000635Y0239993D01*
X1000494Y0239995D01*
X1000494Y0236440D02*
X1000353Y0236442D01*
X1000213Y0236448D01*
X1000072Y0236457D01*
X0999932Y0236470D01*
X0999792Y0236487D01*
X0999653Y0236507D01*
X0999515Y0236532D01*
X0999377Y0236560D01*
X0999240Y0236591D01*
X0999103Y0236627D01*
X0998968Y0236666D01*
X0998834Y0236708D01*
X0998701Y0236754D01*
X0998569Y0236804D01*
X0998439Y0236857D01*
X0998310Y0236913D01*
X0998183Y0236973D01*
X0998183Y0236972D02*
X0998117Y0236997D01*
X0998052Y0237025D01*
X0997988Y0237057D01*
X0997927Y0237092D01*
X0997867Y0237131D01*
X0997809Y0237172D01*
X0997754Y0237217D01*
X0997702Y0237265D01*
X0997652Y0237315D01*
X0997604Y0237368D01*
X0997560Y0237423D01*
X0997519Y0237481D01*
X0997481Y0237541D01*
X0997446Y0237603D01*
X0997415Y0237667D01*
X0997387Y0237732D01*
X0997362Y0237799D01*
X0997342Y0237866D01*
X0997325Y0237935D01*
X0997311Y0238005D01*
X0997302Y0238075D01*
X0997296Y0238146D01*
X0997294Y0238217D01*
X0997296Y0238288D01*
X0997302Y0238359D01*
X0997311Y0238429D01*
X0997325Y0238499D01*
X0997342Y0238568D01*
X0997362Y0238635D01*
X0997387Y0238702D01*
X0997415Y0238767D01*
X0997446Y0238831D01*
X0997481Y0238893D01*
X0997519Y0238953D01*
X0997560Y0239011D01*
X0997604Y0239066D01*
X0997652Y0239119D01*
X0997702Y0239169D01*
X0997754Y0239217D01*
X0997809Y0239262D01*
X0997867Y0239303D01*
X0997927Y0239342D01*
X0997988Y0239377D01*
X0998052Y0239409D01*
X0998117Y0239437D01*
X0998183Y0239462D01*
X1001916Y0242594D02*
X1001999Y0242596D01*
X1002082Y0242602D01*
X1002165Y0242612D01*
X1002248Y0242625D01*
X1002329Y0242643D01*
X1002410Y0242664D01*
X1002489Y0242689D01*
X1002567Y0242718D01*
X1002644Y0242750D01*
X1002719Y0242786D01*
X1002793Y0242825D01*
X1002864Y0242868D01*
X1002934Y0242914D01*
X1003001Y0242964D01*
X1003066Y0243016D01*
X1003128Y0243071D01*
X1003188Y0243130D01*
X1003245Y0243191D01*
X1003299Y0243254D01*
X1003350Y0243320D01*
X1003397Y0243389D01*
X1003442Y0243459D01*
X1003483Y0243532D01*
X1003520Y0243606D01*
X1003555Y0243682D01*
X1003585Y0243760D01*
X1003612Y0243838D01*
X1003635Y0243919D01*
X1003655Y0244000D01*
X1003670Y0244082D01*
X1003682Y0244164D01*
X1003690Y0244247D01*
X1003694Y0244330D01*
X1003694Y0244414D01*
X1003690Y0244497D01*
X1003682Y0244580D01*
X1003670Y0244662D01*
X1003655Y0244744D01*
X1003635Y0244825D01*
X1003612Y0244906D01*
X1003585Y0244984D01*
X1003555Y0245062D01*
X1003520Y0245138D01*
X1003483Y0245212D01*
X1003442Y0245285D01*
X1003397Y0245355D01*
X1003350Y0245424D01*
X1003299Y0245490D01*
X1003245Y0245553D01*
X1003188Y0245614D01*
X1003128Y0245673D01*
X1003066Y0245728D01*
X1003001Y0245780D01*
X1002934Y0245830D01*
X1002864Y0245876D01*
X1002793Y0245919D01*
X1002719Y0245958D01*
X1002644Y0245994D01*
X1002567Y0246026D01*
X1002489Y0246055D01*
X1002410Y0246080D01*
X1002329Y0246101D01*
X1002248Y0246119D01*
X1002165Y0246132D01*
X1002082Y0246142D01*
X1001999Y0246148D01*
X1001916Y0246150D01*
X1000139Y0242594D02*
X1000033Y0242596D01*
X0999926Y0242602D01*
X0999821Y0242612D01*
X0999715Y0242626D01*
X0999610Y0242644D01*
X0999506Y0242665D01*
X0999403Y0242691D01*
X0999301Y0242720D01*
X0999200Y0242754D01*
X0999100Y0242791D01*
X0999002Y0242831D01*
X0998905Y0242876D01*
X0998810Y0242924D01*
X0998717Y0242975D01*
X0998626Y0243030D01*
X0998537Y0243088D01*
X0998450Y0243150D01*
X0998366Y0243214D01*
X0998284Y0243282D01*
X0998205Y0243353D01*
X0998128Y0243427D01*
X0998054Y0243504D01*
X0997983Y0243583D01*
X0997915Y0243665D01*
X0997851Y0243749D01*
X0997789Y0243836D01*
X0997731Y0243925D01*
X0997676Y0244016D01*
X0997625Y0244109D01*
X0997577Y0244204D01*
X0997532Y0244301D01*
X0997492Y0244399D01*
X0997455Y0244499D01*
X0997421Y0244600D01*
X0997392Y0244702D01*
X0997366Y0244805D01*
X0997345Y0244909D01*
X0997327Y0245014D01*
X0997313Y0245120D01*
X0997303Y0245225D01*
X0997297Y0245332D01*
X0997295Y0245438D01*
X0999072Y0231380D02*
X1000850Y0231380D01*
X1000850Y0229246D01*
X1000850Y0231379D02*
X1000954Y0231377D01*
X1001058Y0231371D01*
X1001161Y0231362D01*
X1001264Y0231349D01*
X1001367Y0231332D01*
X1001468Y0231311D01*
X1001569Y0231287D01*
X1001669Y0231258D01*
X1001768Y0231227D01*
X1001866Y0231191D01*
X1001962Y0231152D01*
X1002057Y0231110D01*
X1002150Y0231064D01*
X1002242Y0231015D01*
X1002332Y0230963D01*
X1002419Y0230907D01*
X1002505Y0230848D01*
X1002588Y0230786D01*
X1002669Y0230721D01*
X1002748Y0230653D01*
X1002824Y0230582D01*
X1002897Y0230509D01*
X1002968Y0230433D01*
X1003036Y0230354D01*
X1003101Y0230273D01*
X1003163Y0230190D01*
X1003222Y0230104D01*
X1003278Y0230017D01*
X1003330Y0229927D01*
X1003379Y0229835D01*
X1003425Y0229742D01*
X1003467Y0229647D01*
X1003506Y0229551D01*
X1003542Y0229453D01*
X1003573Y0229354D01*
X1003602Y0229254D01*
X1003626Y0229153D01*
X1003647Y0229052D01*
X1003664Y0228949D01*
X1003677Y0228846D01*
X1003686Y0228743D01*
X1003692Y0228639D01*
X1003694Y0228535D01*
X0999427Y0227824D02*
X0999072Y0227824D01*
X0999427Y0227824D02*
X0999501Y0227826D01*
X0999576Y0227832D01*
X0999649Y0227842D01*
X0999723Y0227855D01*
X0999795Y0227872D01*
X0999866Y0227894D01*
X0999937Y0227918D01*
X1000005Y0227947D01*
X1000073Y0227979D01*
X1000138Y0228015D01*
X1000201Y0228053D01*
X1000263Y0228096D01*
X1000322Y0228141D01*
X1000379Y0228189D01*
X1000433Y0228240D01*
X1000484Y0228294D01*
X1000532Y0228351D01*
X1000577Y0228410D01*
X1000620Y0228472D01*
X1000658Y0228535D01*
X1000694Y0228600D01*
X1000726Y0228668D01*
X1000755Y0228736D01*
X1000779Y0228807D01*
X1000801Y0228878D01*
X1000818Y0228950D01*
X1000831Y0229024D01*
X1000841Y0229097D01*
X1000847Y0229172D01*
X1000849Y0229246D01*
X0999072Y0227824D02*
X0998989Y0227826D01*
X0998906Y0227832D01*
X0998823Y0227842D01*
X0998740Y0227855D01*
X0998659Y0227873D01*
X0998578Y0227894D01*
X0998499Y0227919D01*
X0998421Y0227948D01*
X0998344Y0227980D01*
X0998269Y0228016D01*
X0998195Y0228055D01*
X0998124Y0228098D01*
X0998054Y0228144D01*
X0997987Y0228194D01*
X0997922Y0228246D01*
X0997860Y0228301D01*
X0997800Y0228360D01*
X0997743Y0228421D01*
X0997689Y0228484D01*
X0997638Y0228550D01*
X0997591Y0228619D01*
X0997546Y0228689D01*
X0997505Y0228762D01*
X0997468Y0228836D01*
X0997433Y0228912D01*
X0997403Y0228990D01*
X0997376Y0229068D01*
X0997353Y0229149D01*
X0997333Y0229230D01*
X0997318Y0229312D01*
X0997306Y0229394D01*
X0997298Y0229477D01*
X0997294Y0229560D01*
X0997294Y0229644D01*
X0997298Y0229727D01*
X0997306Y0229810D01*
X0997318Y0229892D01*
X0997333Y0229974D01*
X0997353Y0230055D01*
X0997376Y0230136D01*
X0997403Y0230214D01*
X0997433Y0230292D01*
X0997468Y0230368D01*
X0997505Y0230442D01*
X0997546Y0230515D01*
X0997591Y0230585D01*
X0997638Y0230654D01*
X0997689Y0230720D01*
X0997743Y0230783D01*
X0997800Y0230844D01*
X0997860Y0230903D01*
X0997922Y0230958D01*
X0997987Y0231010D01*
X0998054Y0231060D01*
X0998124Y0231106D01*
X0998195Y0231149D01*
X0998269Y0231188D01*
X0998344Y0231224D01*
X0998421Y0231256D01*
X0998499Y0231285D01*
X0998578Y0231310D01*
X0998659Y0231331D01*
X0998740Y0231349D01*
X0998823Y0231362D01*
X0998906Y0231372D01*
X0998989Y0231378D01*
X0999072Y0231380D01*
X0999072Y0225226D02*
X1000850Y0225226D01*
X1000850Y0223092D01*
X1000850Y0225225D02*
X1000954Y0225223D01*
X1001058Y0225217D01*
X1001161Y0225208D01*
X1001264Y0225195D01*
X1001367Y0225178D01*
X1001468Y0225157D01*
X1001569Y0225133D01*
X1001669Y0225104D01*
X1001768Y0225073D01*
X1001866Y0225037D01*
X1001962Y0224998D01*
X1002057Y0224956D01*
X1002150Y0224910D01*
X1002242Y0224861D01*
X1002332Y0224809D01*
X1002419Y0224753D01*
X1002505Y0224694D01*
X1002588Y0224632D01*
X1002669Y0224567D01*
X1002748Y0224499D01*
X1002824Y0224428D01*
X1002897Y0224355D01*
X1002968Y0224279D01*
X1003036Y0224200D01*
X1003101Y0224119D01*
X1003163Y0224036D01*
X1003222Y0223950D01*
X1003278Y0223863D01*
X1003330Y0223773D01*
X1003379Y0223681D01*
X1003425Y0223588D01*
X1003467Y0223493D01*
X1003506Y0223397D01*
X1003542Y0223299D01*
X1003573Y0223200D01*
X1003602Y0223100D01*
X1003626Y0222999D01*
X1003647Y0222898D01*
X1003664Y0222795D01*
X1003677Y0222692D01*
X1003686Y0222589D01*
X1003692Y0222485D01*
X1003694Y0222381D01*
X0999427Y0221670D02*
X0999072Y0221670D01*
X0999427Y0221670D02*
X0999501Y0221672D01*
X0999576Y0221678D01*
X0999649Y0221688D01*
X0999723Y0221701D01*
X0999795Y0221718D01*
X0999866Y0221740D01*
X0999937Y0221764D01*
X1000005Y0221793D01*
X1000073Y0221825D01*
X1000138Y0221861D01*
X1000201Y0221899D01*
X1000263Y0221942D01*
X1000322Y0221987D01*
X1000379Y0222035D01*
X1000433Y0222086D01*
X1000484Y0222140D01*
X1000532Y0222197D01*
X1000577Y0222256D01*
X1000620Y0222318D01*
X1000658Y0222381D01*
X1000694Y0222446D01*
X1000726Y0222514D01*
X1000755Y0222582D01*
X1000779Y0222653D01*
X1000801Y0222724D01*
X1000818Y0222796D01*
X1000831Y0222870D01*
X1000841Y0222943D01*
X1000847Y0223018D01*
X1000849Y0223092D01*
X0999072Y0221670D02*
X0998989Y0221672D01*
X0998906Y0221678D01*
X0998823Y0221688D01*
X0998740Y0221701D01*
X0998659Y0221719D01*
X0998578Y0221740D01*
X0998499Y0221765D01*
X0998421Y0221794D01*
X0998344Y0221826D01*
X0998269Y0221862D01*
X0998195Y0221901D01*
X0998124Y0221944D01*
X0998054Y0221990D01*
X0997987Y0222040D01*
X0997922Y0222092D01*
X0997860Y0222147D01*
X0997800Y0222206D01*
X0997743Y0222267D01*
X0997689Y0222330D01*
X0997638Y0222396D01*
X0997591Y0222465D01*
X0997546Y0222535D01*
X0997505Y0222608D01*
X0997468Y0222682D01*
X0997433Y0222758D01*
X0997403Y0222836D01*
X0997376Y0222914D01*
X0997353Y0222995D01*
X0997333Y0223076D01*
X0997318Y0223158D01*
X0997306Y0223240D01*
X0997298Y0223323D01*
X0997294Y0223406D01*
X0997294Y0223490D01*
X0997298Y0223573D01*
X0997306Y0223656D01*
X0997318Y0223738D01*
X0997333Y0223820D01*
X0997353Y0223901D01*
X0997376Y0223982D01*
X0997403Y0224060D01*
X0997433Y0224138D01*
X0997468Y0224214D01*
X0997505Y0224288D01*
X0997546Y0224361D01*
X0997591Y0224431D01*
X0997638Y0224500D01*
X0997689Y0224566D01*
X0997743Y0224629D01*
X0997800Y0224690D01*
X0997860Y0224749D01*
X0997922Y0224804D01*
X0997987Y0224856D01*
X0998054Y0224906D01*
X0998124Y0224952D01*
X0998195Y0224995D01*
X0998269Y0225034D01*
X0998344Y0225070D01*
X0998421Y0225102D01*
X0998499Y0225131D01*
X0998578Y0225156D01*
X0998659Y0225177D01*
X0998740Y0225195D01*
X0998823Y0225208D01*
X0998906Y0225218D01*
X0998989Y0225224D01*
X0999072Y0225226D01*
X0501477Y0016473D02*
X0501475Y0016399D01*
X0501469Y0016324D01*
X0501459Y0016251D01*
X0501446Y0016177D01*
X0501429Y0016105D01*
X0501407Y0016034D01*
X0501383Y0015963D01*
X0501354Y0015895D01*
X0501322Y0015827D01*
X0501286Y0015762D01*
X0501248Y0015699D01*
X0501205Y0015637D01*
X0501160Y0015578D01*
X0501112Y0015521D01*
X0501061Y0015467D01*
X0501007Y0015416D01*
X0500950Y0015368D01*
X0500891Y0015323D01*
X0500829Y0015280D01*
X0500766Y0015242D01*
X0500701Y0015206D01*
X0500633Y0015174D01*
X0500565Y0015145D01*
X0500494Y0015121D01*
X0500423Y0015099D01*
X0500351Y0015082D01*
X0500277Y0015069D01*
X0500204Y0015059D01*
X0500129Y0015053D01*
X0500055Y0015051D01*
X0499981Y0015053D01*
X0499906Y0015059D01*
X0499833Y0015069D01*
X0499759Y0015082D01*
X0499687Y0015099D01*
X0499616Y0015121D01*
X0499545Y0015145D01*
X0499477Y0015174D01*
X0499409Y0015206D01*
X0499344Y0015242D01*
X0499281Y0015280D01*
X0499219Y0015323D01*
X0499160Y0015368D01*
X0499103Y0015416D01*
X0499049Y0015467D01*
X0498998Y0015521D01*
X0498950Y0015578D01*
X0498905Y0015637D01*
X0498862Y0015699D01*
X0498824Y0015762D01*
X0498788Y0015827D01*
X0498756Y0015895D01*
X0498727Y0015963D01*
X0498703Y0016034D01*
X0498681Y0016105D01*
X0498664Y0016177D01*
X0498651Y0016251D01*
X0498641Y0016324D01*
X0498635Y0016399D01*
X0498633Y0016473D01*
X0498635Y0016547D01*
X0498641Y0016622D01*
X0498651Y0016695D01*
X0498664Y0016769D01*
X0498681Y0016841D01*
X0498703Y0016912D01*
X0498727Y0016983D01*
X0498756Y0017051D01*
X0498788Y0017119D01*
X0498824Y0017184D01*
X0498862Y0017247D01*
X0498905Y0017309D01*
X0498950Y0017368D01*
X0498998Y0017425D01*
X0499049Y0017479D01*
X0499103Y0017530D01*
X0499160Y0017578D01*
X0499219Y0017623D01*
X0499281Y0017666D01*
X0499344Y0017704D01*
X0499409Y0017740D01*
X0499477Y0017772D01*
X0499545Y0017801D01*
X0499616Y0017825D01*
X0499687Y0017847D01*
X0499759Y0017864D01*
X0499833Y0017877D01*
X0499906Y0017887D01*
X0499981Y0017893D01*
X0500055Y0017895D01*
X0500129Y0017893D01*
X0500204Y0017887D01*
X0500277Y0017877D01*
X0500351Y0017864D01*
X0500423Y0017847D01*
X0500494Y0017825D01*
X0500565Y0017801D01*
X0500633Y0017772D01*
X0500701Y0017740D01*
X0500766Y0017704D01*
X0500829Y0017666D01*
X0500891Y0017623D01*
X0500950Y0017578D01*
X0501007Y0017530D01*
X0501061Y0017479D01*
X0501112Y0017425D01*
X0501160Y0017368D01*
X0501205Y0017309D01*
X0501248Y0017247D01*
X0501286Y0017184D01*
X0501322Y0017119D01*
X0501354Y0017051D01*
X0501383Y0016983D01*
X0501407Y0016912D01*
X0501429Y0016841D01*
X0501446Y0016769D01*
X0501459Y0016695D01*
X0501469Y0016622D01*
X0501475Y0016547D01*
X0501477Y0016473D01*
X0501833Y0013273D02*
X0501831Y0013190D01*
X0501825Y0013107D01*
X0501815Y0013024D01*
X0501802Y0012941D01*
X0501784Y0012860D01*
X0501763Y0012779D01*
X0501738Y0012700D01*
X0501709Y0012622D01*
X0501677Y0012545D01*
X0501641Y0012470D01*
X0501602Y0012396D01*
X0501559Y0012325D01*
X0501513Y0012255D01*
X0501463Y0012188D01*
X0501411Y0012123D01*
X0501356Y0012061D01*
X0501297Y0012001D01*
X0501236Y0011944D01*
X0501173Y0011890D01*
X0501107Y0011839D01*
X0501038Y0011792D01*
X0500968Y0011747D01*
X0500895Y0011706D01*
X0500821Y0011669D01*
X0500745Y0011634D01*
X0500667Y0011604D01*
X0500589Y0011577D01*
X0500508Y0011554D01*
X0500427Y0011534D01*
X0500345Y0011519D01*
X0500263Y0011507D01*
X0500180Y0011499D01*
X0500097Y0011495D01*
X0500013Y0011495D01*
X0499930Y0011499D01*
X0499847Y0011507D01*
X0499765Y0011519D01*
X0499683Y0011534D01*
X0499602Y0011554D01*
X0499521Y0011577D01*
X0499443Y0011604D01*
X0499365Y0011634D01*
X0499289Y0011669D01*
X0499215Y0011706D01*
X0499142Y0011747D01*
X0499072Y0011792D01*
X0499003Y0011839D01*
X0498937Y0011890D01*
X0498874Y0011944D01*
X0498813Y0012001D01*
X0498754Y0012061D01*
X0498699Y0012123D01*
X0498647Y0012188D01*
X0498597Y0012255D01*
X0498551Y0012325D01*
X0498508Y0012396D01*
X0498469Y0012470D01*
X0498433Y0012545D01*
X0498401Y0012622D01*
X0498372Y0012700D01*
X0498347Y0012779D01*
X0498326Y0012860D01*
X0498308Y0012941D01*
X0498295Y0013024D01*
X0498285Y0013107D01*
X0498279Y0013190D01*
X0498277Y0013273D01*
X0498279Y0013356D01*
X0498285Y0013439D01*
X0498295Y0013522D01*
X0498308Y0013605D01*
X0498326Y0013686D01*
X0498347Y0013767D01*
X0498372Y0013846D01*
X0498401Y0013924D01*
X0498433Y0014001D01*
X0498469Y0014076D01*
X0498508Y0014150D01*
X0498551Y0014221D01*
X0498597Y0014291D01*
X0498647Y0014358D01*
X0498699Y0014423D01*
X0498754Y0014485D01*
X0498813Y0014545D01*
X0498874Y0014602D01*
X0498937Y0014656D01*
X0499003Y0014707D01*
X0499072Y0014754D01*
X0499142Y0014799D01*
X0499215Y0014840D01*
X0499289Y0014877D01*
X0499365Y0014912D01*
X0499443Y0014942D01*
X0499521Y0014969D01*
X0499602Y0014992D01*
X0499683Y0015012D01*
X0499765Y0015027D01*
X0499847Y0015039D01*
X0499930Y0015047D01*
X0500013Y0015051D01*
X0500097Y0015051D01*
X0500180Y0015047D01*
X0500263Y0015039D01*
X0500345Y0015027D01*
X0500427Y0015012D01*
X0500508Y0014992D01*
X0500589Y0014969D01*
X0500667Y0014942D01*
X0500745Y0014912D01*
X0500821Y0014877D01*
X0500895Y0014840D01*
X0500968Y0014799D01*
X0501038Y0014754D01*
X0501107Y0014707D01*
X0501173Y0014656D01*
X0501236Y0014602D01*
X0501297Y0014545D01*
X0501356Y0014485D01*
X0501411Y0014423D01*
X0501463Y0014358D01*
X0501513Y0014291D01*
X0501559Y0014221D01*
X0501602Y0014150D01*
X0501641Y0014076D01*
X0501677Y0014001D01*
X0501709Y0013924D01*
X0501738Y0013846D01*
X0501763Y0013767D01*
X0501784Y0013686D01*
X0501802Y0013605D01*
X0501815Y0013522D01*
X0501825Y0013439D01*
X0501831Y0013356D01*
X0501833Y0013273D01*
X0494256Y0015050D02*
X0492834Y0015050D01*
X0494256Y0015051D02*
X0494330Y0015053D01*
X0494405Y0015059D01*
X0494478Y0015069D01*
X0494552Y0015082D01*
X0494624Y0015099D01*
X0494695Y0015121D01*
X0494766Y0015145D01*
X0494834Y0015174D01*
X0494902Y0015206D01*
X0494967Y0015242D01*
X0495030Y0015280D01*
X0495092Y0015323D01*
X0495151Y0015368D01*
X0495208Y0015416D01*
X0495262Y0015467D01*
X0495313Y0015521D01*
X0495361Y0015578D01*
X0495406Y0015637D01*
X0495449Y0015699D01*
X0495487Y0015762D01*
X0495523Y0015827D01*
X0495555Y0015895D01*
X0495584Y0015963D01*
X0495608Y0016034D01*
X0495630Y0016105D01*
X0495647Y0016177D01*
X0495660Y0016251D01*
X0495670Y0016324D01*
X0495676Y0016399D01*
X0495678Y0016473D01*
X0495676Y0016547D01*
X0495670Y0016622D01*
X0495660Y0016695D01*
X0495647Y0016769D01*
X0495630Y0016841D01*
X0495608Y0016912D01*
X0495584Y0016983D01*
X0495555Y0017051D01*
X0495523Y0017119D01*
X0495487Y0017184D01*
X0495449Y0017247D01*
X0495406Y0017309D01*
X0495361Y0017368D01*
X0495313Y0017425D01*
X0495262Y0017479D01*
X0495208Y0017530D01*
X0495151Y0017578D01*
X0495092Y0017623D01*
X0495030Y0017666D01*
X0494967Y0017704D01*
X0494902Y0017740D01*
X0494834Y0017772D01*
X0494766Y0017801D01*
X0494695Y0017825D01*
X0494624Y0017847D01*
X0494552Y0017864D01*
X0494478Y0017877D01*
X0494405Y0017887D01*
X0494330Y0017893D01*
X0494256Y0017895D01*
X0492123Y0017895D01*
X0493901Y0015051D02*
X0493984Y0015049D01*
X0494067Y0015043D01*
X0494150Y0015033D01*
X0494233Y0015020D01*
X0494314Y0015002D01*
X0494395Y0014981D01*
X0494474Y0014956D01*
X0494552Y0014927D01*
X0494629Y0014895D01*
X0494704Y0014859D01*
X0494778Y0014820D01*
X0494849Y0014777D01*
X0494919Y0014731D01*
X0494986Y0014681D01*
X0495051Y0014629D01*
X0495113Y0014574D01*
X0495173Y0014515D01*
X0495230Y0014454D01*
X0495284Y0014391D01*
X0495335Y0014325D01*
X0495382Y0014256D01*
X0495427Y0014186D01*
X0495468Y0014113D01*
X0495505Y0014039D01*
X0495540Y0013963D01*
X0495570Y0013885D01*
X0495597Y0013807D01*
X0495620Y0013726D01*
X0495640Y0013645D01*
X0495655Y0013563D01*
X0495667Y0013481D01*
X0495675Y0013398D01*
X0495679Y0013315D01*
X0495679Y0013231D01*
X0495675Y0013148D01*
X0495667Y0013065D01*
X0495655Y0012983D01*
X0495640Y0012901D01*
X0495620Y0012820D01*
X0495597Y0012739D01*
X0495570Y0012661D01*
X0495540Y0012583D01*
X0495505Y0012507D01*
X0495468Y0012433D01*
X0495427Y0012360D01*
X0495382Y0012290D01*
X0495335Y0012221D01*
X0495284Y0012155D01*
X0495230Y0012092D01*
X0495173Y0012031D01*
X0495113Y0011972D01*
X0495051Y0011917D01*
X0494986Y0011865D01*
X0494919Y0011815D01*
X0494849Y0011769D01*
X0494778Y0011726D01*
X0494704Y0011687D01*
X0494629Y0011651D01*
X0494552Y0011619D01*
X0494474Y0011590D01*
X0494395Y0011565D01*
X0494314Y0011544D01*
X0494233Y0011526D01*
X0494150Y0011513D01*
X0494067Y0011503D01*
X0493984Y0011497D01*
X0493901Y0011495D01*
X0492123Y0011495D01*
X0489771Y0011495D02*
X0489415Y0011495D01*
X0489415Y0011850D01*
X0489771Y0011850D01*
X0489771Y0011495D01*
X0487063Y0013273D02*
X0487063Y0013628D01*
X0487061Y0013702D01*
X0487055Y0013777D01*
X0487045Y0013850D01*
X0487032Y0013924D01*
X0487015Y0013996D01*
X0486993Y0014067D01*
X0486969Y0014138D01*
X0486940Y0014206D01*
X0486908Y0014274D01*
X0486872Y0014339D01*
X0486834Y0014402D01*
X0486791Y0014464D01*
X0486746Y0014523D01*
X0486698Y0014580D01*
X0486647Y0014634D01*
X0486593Y0014685D01*
X0486536Y0014733D01*
X0486477Y0014778D01*
X0486415Y0014821D01*
X0486352Y0014859D01*
X0486287Y0014895D01*
X0486219Y0014927D01*
X0486151Y0014956D01*
X0486080Y0014980D01*
X0486009Y0015002D01*
X0485937Y0015019D01*
X0485863Y0015032D01*
X0485790Y0015042D01*
X0485715Y0015048D01*
X0485641Y0015050D01*
X0483507Y0015050D01*
X0483507Y0013273D01*
X0483509Y0013190D01*
X0483515Y0013107D01*
X0483525Y0013024D01*
X0483538Y0012941D01*
X0483556Y0012860D01*
X0483577Y0012779D01*
X0483602Y0012700D01*
X0483631Y0012622D01*
X0483663Y0012545D01*
X0483699Y0012470D01*
X0483738Y0012396D01*
X0483781Y0012325D01*
X0483827Y0012255D01*
X0483877Y0012188D01*
X0483929Y0012123D01*
X0483984Y0012061D01*
X0484043Y0012001D01*
X0484104Y0011944D01*
X0484167Y0011890D01*
X0484233Y0011839D01*
X0484302Y0011792D01*
X0484372Y0011747D01*
X0484445Y0011706D01*
X0484519Y0011669D01*
X0484595Y0011634D01*
X0484673Y0011604D01*
X0484751Y0011577D01*
X0484832Y0011554D01*
X0484913Y0011534D01*
X0484995Y0011519D01*
X0485077Y0011507D01*
X0485160Y0011499D01*
X0485243Y0011495D01*
X0485327Y0011495D01*
X0485410Y0011499D01*
X0485493Y0011507D01*
X0485575Y0011519D01*
X0485657Y0011534D01*
X0485738Y0011554D01*
X0485819Y0011577D01*
X0485897Y0011604D01*
X0485975Y0011634D01*
X0486051Y0011669D01*
X0486125Y0011706D01*
X0486198Y0011747D01*
X0486268Y0011792D01*
X0486337Y0011839D01*
X0486403Y0011890D01*
X0486466Y0011944D01*
X0486527Y0012001D01*
X0486586Y0012061D01*
X0486641Y0012123D01*
X0486693Y0012188D01*
X0486743Y0012255D01*
X0486789Y0012325D01*
X0486832Y0012396D01*
X0486871Y0012470D01*
X0486907Y0012545D01*
X0486939Y0012622D01*
X0486968Y0012700D01*
X0486993Y0012779D01*
X0487014Y0012860D01*
X0487032Y0012941D01*
X0487045Y0013024D01*
X0487055Y0013107D01*
X0487061Y0013190D01*
X0487063Y0013273D01*
X0483508Y0015050D02*
X0483510Y0015156D01*
X0483516Y0015263D01*
X0483526Y0015368D01*
X0483540Y0015474D01*
X0483558Y0015579D01*
X0483579Y0015683D01*
X0483605Y0015786D01*
X0483634Y0015888D01*
X0483668Y0015989D01*
X0483705Y0016089D01*
X0483745Y0016187D01*
X0483790Y0016284D01*
X0483838Y0016379D01*
X0483889Y0016472D01*
X0483944Y0016563D01*
X0484002Y0016652D01*
X0484064Y0016739D01*
X0484128Y0016823D01*
X0484196Y0016905D01*
X0484267Y0016984D01*
X0484341Y0017061D01*
X0484418Y0017135D01*
X0484497Y0017206D01*
X0484579Y0017274D01*
X0484663Y0017338D01*
X0484750Y0017400D01*
X0484839Y0017458D01*
X0484930Y0017513D01*
X0485023Y0017564D01*
X0485118Y0017612D01*
X0485215Y0017657D01*
X0485313Y0017697D01*
X0485413Y0017734D01*
X0485514Y0017768D01*
X0485616Y0017797D01*
X0485719Y0017823D01*
X0485823Y0017844D01*
X0485928Y0017862D01*
X0486034Y0017876D01*
X0486139Y0017886D01*
X0486246Y0017892D01*
X0486352Y0017894D01*
X0480909Y0012917D02*
X0477353Y0012917D01*
X0478775Y0017895D01*
X0479842Y0014339D02*
X0479842Y0011495D01*
X0474755Y0011495D02*
X0471199Y0011495D01*
X0474221Y0015050D01*
X0473155Y0017895D02*
X0473066Y0017893D01*
X0472977Y0017887D01*
X0472888Y0017878D01*
X0472800Y0017864D01*
X0472713Y0017847D01*
X0472626Y0017826D01*
X0472540Y0017801D01*
X0472456Y0017773D01*
X0472373Y0017740D01*
X0472291Y0017705D01*
X0472211Y0017665D01*
X0472133Y0017623D01*
X0472056Y0017577D01*
X0471982Y0017528D01*
X0471910Y0017475D01*
X0471840Y0017420D01*
X0471773Y0017361D01*
X0471708Y0017300D01*
X0471646Y0017236D01*
X0471587Y0017169D01*
X0471531Y0017100D01*
X0471478Y0017028D01*
X0471428Y0016954D01*
X0471381Y0016878D01*
X0471338Y0016801D01*
X0471298Y0016721D01*
X0471261Y0016640D01*
X0471228Y0016557D01*
X0471199Y0016472D01*
X0474222Y0015050D02*
X0474279Y0015108D01*
X0474335Y0015169D01*
X0474387Y0015232D01*
X0474436Y0015297D01*
X0474482Y0015365D01*
X0474524Y0015435D01*
X0474564Y0015507D01*
X0474599Y0015580D01*
X0474632Y0015656D01*
X0474660Y0015732D01*
X0474685Y0015810D01*
X0474706Y0015889D01*
X0474724Y0015969D01*
X0474737Y0016050D01*
X0474747Y0016131D01*
X0474753Y0016213D01*
X0474755Y0016295D01*
X0474753Y0016374D01*
X0474747Y0016452D01*
X0474738Y0016530D01*
X0474724Y0016607D01*
X0474707Y0016684D01*
X0474686Y0016759D01*
X0474661Y0016834D01*
X0474633Y0016907D01*
X0474601Y0016979D01*
X0474566Y0017049D01*
X0474527Y0017118D01*
X0474485Y0017184D01*
X0474440Y0017248D01*
X0474392Y0017310D01*
X0474341Y0017369D01*
X0474286Y0017426D01*
X0474229Y0017481D01*
X0474170Y0017532D01*
X0474108Y0017580D01*
X0474044Y0017625D01*
X0473978Y0017667D01*
X0473909Y0017706D01*
X0473839Y0017741D01*
X0473767Y0017773D01*
X0473694Y0017801D01*
X0473619Y0017826D01*
X0473544Y0017847D01*
X0473467Y0017864D01*
X0473390Y0017878D01*
X0473312Y0017887D01*
X0473234Y0017893D01*
X0473155Y0017895D01*
M02*
