G75*
%MOIN*%
%OFA0B0*%
%FSLAX25Y25*%
%IPPOS*%
%LPD*%
%AMOC8*
5,1,8,0,0,1.08239X$1,22.5*
%
%ADD10C,0.15000*%
%ADD11C,0.04134*%
%ADD12C,0.06400*%
%ADD13C,0.04800*%
%ADD14C,0.08850*%
%ADD15C,0.06000*%
%ADD16R,0.04724X0.02756*%
%ADD17OC8,0.06000*%
%ADD18C,0.07500*%
%ADD19C,0.00600*%
%ADD20C,0.02178*%
%ADD21C,0.02000*%
%ADD22C,0.07500*%
D10*
X0040328Y0326443D03*
X0069069Y0326443D03*
D11*
X0057848Y0315419D02*
X0057848Y0311285D01*
X0054698Y0306167D02*
X0054698Y0302033D01*
X0048399Y0302033D02*
X0048399Y0306167D01*
X0051549Y0311285D02*
X0051549Y0315419D01*
X0060998Y0306167D02*
X0060998Y0302033D01*
D12*
X0065340Y0288608D03*
X0055340Y0288608D03*
X0045340Y0288608D03*
X0045340Y0278608D03*
X0055340Y0278608D03*
X0065340Y0278608D03*
D13*
X0170025Y0285801D03*
X0170025Y0304801D03*
D14*
X0152348Y0237348D03*
X0127348Y0227348D03*
X0077348Y0237348D03*
X0052348Y0227348D03*
X0077348Y0162348D03*
X0052348Y0152348D03*
X0077348Y0087348D03*
X0052348Y0077348D03*
X0127348Y0077348D03*
X0152348Y0087348D03*
X0202348Y0077348D03*
X0227348Y0087348D03*
X0202348Y0152348D03*
X0227348Y0162348D03*
X0152348Y0162348D03*
X0127348Y0152348D03*
X0202348Y0227348D03*
X0227348Y0237348D03*
D15*
X0108177Y0267532D02*
X0108177Y0273532D01*
X0090377Y0273532D02*
X0090377Y0267532D01*
X0090377Y0293132D02*
X0090377Y0299132D01*
X0108177Y0299132D02*
X0108177Y0293132D01*
D16*
X0134986Y0194828D03*
X0149553Y0194828D03*
X0210065Y0194828D03*
X0224631Y0194828D03*
X0224631Y0119828D03*
X0210065Y0119828D03*
X0149553Y0119828D03*
X0134986Y0119828D03*
X0074631Y0119828D03*
X0060065Y0119828D03*
X0060065Y0044828D03*
X0074631Y0044828D03*
X0134986Y0044828D03*
X0149553Y0044828D03*
X0210065Y0044828D03*
X0224631Y0044828D03*
X0074631Y0194828D03*
X0060065Y0194828D03*
D17*
X0266600Y0273600D03*
X0276600Y0273600D03*
X0286600Y0273600D03*
X0296600Y0273600D03*
X0306600Y0273600D03*
X0316600Y0273600D03*
X0351600Y0273600D03*
X0361600Y0273600D03*
X0371600Y0273600D03*
X0381600Y0273600D03*
X0391600Y0273600D03*
X0401600Y0273600D03*
D18*
X0399600Y0259600D03*
X0399600Y0249600D03*
X0399600Y0239600D03*
X0399600Y0229600D03*
X0399600Y0219600D03*
X0399600Y0209600D03*
X0399600Y0199600D03*
X0399600Y0189600D03*
X0399600Y0179600D03*
X0399600Y0169600D03*
X0399600Y0159600D03*
X0399600Y0149600D03*
X0399600Y0139600D03*
X0399600Y0129600D03*
X0399600Y0119600D03*
X0399600Y0109600D03*
X0399600Y0099600D03*
X0399600Y0089600D03*
X0399600Y0079600D03*
X0399600Y0069600D03*
X0399600Y0059600D03*
X0399600Y0049600D03*
X0399600Y0039600D03*
X0389600Y0039600D03*
X0379600Y0039600D03*
X0369600Y0039600D03*
X0359600Y0039600D03*
X0359600Y0049600D03*
X0369600Y0049600D03*
X0379600Y0049600D03*
X0389600Y0049600D03*
X0389600Y0059600D03*
X0379600Y0059600D03*
X0369600Y0059600D03*
X0359600Y0059600D03*
X0359600Y0069600D03*
X0359600Y0079600D03*
X0369600Y0079600D03*
X0369600Y0069600D03*
X0379600Y0069600D03*
X0379600Y0079600D03*
X0389600Y0079600D03*
X0389600Y0069600D03*
X0389600Y0089600D03*
X0379600Y0089600D03*
X0369600Y0089600D03*
X0359600Y0089600D03*
X0359600Y0099600D03*
X0369600Y0099600D03*
X0379600Y0099600D03*
X0389600Y0099600D03*
X0389600Y0109600D03*
X0389600Y0119600D03*
X0379600Y0119600D03*
X0379600Y0109600D03*
X0369600Y0109600D03*
X0369600Y0119600D03*
X0359600Y0119600D03*
X0359600Y0109600D03*
X0349600Y0109600D03*
X0349600Y0119600D03*
X0339600Y0119600D03*
X0339600Y0109600D03*
X0329600Y0109600D03*
X0329600Y0119600D03*
X0329600Y0129600D03*
X0339600Y0129600D03*
X0349600Y0129600D03*
X0349600Y0139600D03*
X0339600Y0139600D03*
X0329600Y0139600D03*
X0329600Y0149600D03*
X0329600Y0159600D03*
X0339600Y0159600D03*
X0339600Y0149600D03*
X0349600Y0149600D03*
X0349600Y0159600D03*
X0349600Y0169600D03*
X0339600Y0169600D03*
X0329600Y0169600D03*
X0329600Y0179600D03*
X0339600Y0179600D03*
X0349600Y0179600D03*
X0349600Y0189600D03*
X0349600Y0199600D03*
X0339600Y0199600D03*
X0339600Y0189600D03*
X0329600Y0189600D03*
X0329600Y0199600D03*
X0329600Y0209600D03*
X0339600Y0209600D03*
X0349600Y0209600D03*
X0349600Y0219600D03*
X0339600Y0219600D03*
X0329600Y0219600D03*
X0329600Y0229600D03*
X0329600Y0239600D03*
X0339600Y0239600D03*
X0339600Y0229600D03*
X0349600Y0229600D03*
X0349600Y0239600D03*
X0349600Y0249600D03*
X0339600Y0249600D03*
X0329600Y0249600D03*
X0329600Y0259600D03*
X0339600Y0259600D03*
X0349600Y0259600D03*
X0359600Y0259600D03*
X0369600Y0259600D03*
X0379600Y0259600D03*
X0389600Y0259600D03*
X0389600Y0249600D03*
X0379600Y0249600D03*
X0369600Y0249600D03*
X0359600Y0249600D03*
X0359600Y0239600D03*
X0359600Y0229600D03*
X0369600Y0229600D03*
X0369600Y0239600D03*
X0379600Y0239600D03*
X0379600Y0229600D03*
X0389600Y0229600D03*
X0389600Y0239600D03*
X0389600Y0219600D03*
X0379600Y0219600D03*
X0369600Y0219600D03*
X0359600Y0219600D03*
X0359600Y0209600D03*
X0369600Y0209600D03*
X0379600Y0209600D03*
X0389600Y0209600D03*
X0389600Y0199600D03*
X0389600Y0189600D03*
X0379600Y0189600D03*
X0379600Y0199600D03*
X0369600Y0199600D03*
X0369600Y0189600D03*
X0359600Y0189600D03*
X0359600Y0199600D03*
X0359600Y0179600D03*
X0369600Y0179600D03*
X0379600Y0179600D03*
X0389600Y0179600D03*
X0389600Y0169600D03*
X0379600Y0169600D03*
X0369600Y0169600D03*
X0359600Y0169600D03*
X0359600Y0159600D03*
X0359600Y0149600D03*
X0369600Y0149600D03*
X0369600Y0159600D03*
X0379600Y0159600D03*
X0379600Y0149600D03*
X0389600Y0149600D03*
X0389600Y0159600D03*
X0389600Y0139600D03*
X0379600Y0139600D03*
X0369600Y0139600D03*
X0359600Y0139600D03*
X0359600Y0129600D03*
X0369600Y0129600D03*
X0379600Y0129600D03*
X0389600Y0129600D03*
X0349600Y0099600D03*
X0339600Y0099600D03*
X0329600Y0099600D03*
X0329600Y0089600D03*
X0339600Y0089600D03*
X0349600Y0089600D03*
X0349600Y0079600D03*
X0349600Y0069600D03*
X0339600Y0069600D03*
X0339600Y0079600D03*
X0329600Y0079600D03*
X0329600Y0069600D03*
X0329600Y0059600D03*
X0339600Y0059600D03*
X0349600Y0059600D03*
X0349600Y0049600D03*
X0339600Y0049600D03*
X0329600Y0049600D03*
X0329600Y0039600D03*
X0339600Y0039600D03*
X0349600Y0039600D03*
X0319600Y0039600D03*
X0309600Y0039600D03*
X0299600Y0039600D03*
X0299600Y0049600D03*
X0309600Y0049600D03*
X0319600Y0049600D03*
X0319600Y0059600D03*
X0309600Y0059600D03*
X0299600Y0059600D03*
X0299600Y0069600D03*
X0299600Y0079600D03*
X0309600Y0079600D03*
X0309600Y0069600D03*
X0319600Y0069600D03*
X0319600Y0079600D03*
X0319600Y0089600D03*
X0309600Y0089600D03*
X0299600Y0089600D03*
X0299600Y0099600D03*
X0309600Y0099600D03*
X0319600Y0099600D03*
X0319600Y0109600D03*
X0319600Y0119600D03*
X0309600Y0119600D03*
X0309600Y0109600D03*
X0299600Y0109600D03*
X0299600Y0119600D03*
X0299600Y0129600D03*
X0309600Y0129600D03*
X0319600Y0129600D03*
X0319600Y0139600D03*
X0309600Y0139600D03*
X0299600Y0139600D03*
X0299600Y0149600D03*
X0299600Y0159600D03*
X0309600Y0159600D03*
X0309600Y0149600D03*
X0319600Y0149600D03*
X0319600Y0159600D03*
X0319600Y0169600D03*
X0309600Y0169600D03*
X0299600Y0169600D03*
X0299600Y0179600D03*
X0309600Y0179600D03*
X0319600Y0179600D03*
X0319600Y0189600D03*
X0319600Y0199600D03*
X0309600Y0199600D03*
X0309600Y0189600D03*
X0299600Y0189600D03*
X0299600Y0199600D03*
X0299600Y0209600D03*
X0309600Y0209600D03*
X0319600Y0209600D03*
X0319600Y0219600D03*
X0309600Y0219600D03*
X0299600Y0219600D03*
X0299600Y0229600D03*
X0299600Y0239600D03*
X0309600Y0239600D03*
X0309600Y0229600D03*
X0319600Y0229600D03*
X0319600Y0239600D03*
X0319600Y0249600D03*
X0309600Y0249600D03*
X0299600Y0249600D03*
X0299600Y0259600D03*
X0309600Y0259600D03*
X0319600Y0259600D03*
X0289600Y0259600D03*
X0279600Y0259600D03*
X0269600Y0259600D03*
X0269600Y0249600D03*
X0279600Y0249600D03*
X0289600Y0249600D03*
X0289600Y0239600D03*
X0289600Y0229600D03*
X0279600Y0229600D03*
X0279600Y0239600D03*
X0269600Y0239600D03*
X0269600Y0229600D03*
X0269600Y0219600D03*
X0279600Y0219600D03*
X0289600Y0219600D03*
X0289600Y0209600D03*
X0279600Y0209600D03*
X0269600Y0209600D03*
X0269600Y0199600D03*
X0269600Y0189600D03*
X0279600Y0189600D03*
X0279600Y0199600D03*
X0289600Y0199600D03*
X0289600Y0189600D03*
X0289600Y0179600D03*
X0279600Y0179600D03*
X0269600Y0179600D03*
X0269600Y0169600D03*
X0279600Y0169600D03*
X0289600Y0169600D03*
X0289600Y0159600D03*
X0289600Y0149600D03*
X0279600Y0149600D03*
X0279600Y0159600D03*
X0269600Y0159600D03*
X0269600Y0149600D03*
X0269600Y0139600D03*
X0279600Y0139600D03*
X0289600Y0139600D03*
X0289600Y0129600D03*
X0279600Y0129600D03*
X0269600Y0129600D03*
X0269600Y0119600D03*
X0269600Y0109600D03*
X0279600Y0109600D03*
X0279600Y0119600D03*
X0289600Y0119600D03*
X0289600Y0109600D03*
X0289600Y0099600D03*
X0279600Y0099600D03*
X0269600Y0099600D03*
X0269600Y0089600D03*
X0279600Y0089600D03*
X0289600Y0089600D03*
X0289600Y0079600D03*
X0289600Y0069600D03*
X0279600Y0069600D03*
X0279600Y0079600D03*
X0269600Y0079600D03*
X0269600Y0069600D03*
X0269600Y0059600D03*
X0279600Y0059600D03*
X0289600Y0059600D03*
X0289600Y0049600D03*
X0279600Y0049600D03*
X0269600Y0049600D03*
X0269600Y0039600D03*
X0279600Y0039600D03*
X0289600Y0039600D03*
D19*
X0057427Y0044828D02*
X0055065Y0047191D01*
X0055065Y0074631D01*
X0052348Y0077348D01*
X0057427Y0044828D02*
X0060065Y0044828D01*
X0074631Y0044828D02*
X0124356Y0044828D01*
X0129868Y0039317D01*
X0144041Y0039317D01*
X0149553Y0044828D01*
X0182911Y0044828D01*
X0199159Y0044828D01*
X0204671Y0039317D01*
X0219120Y0039317D01*
X0224631Y0044828D01*
X0210065Y0044828D02*
X0207372Y0044828D01*
X0205100Y0047100D01*
X0205100Y0074596D01*
X0202348Y0077348D01*
X0182911Y0044828D02*
X0183017Y0044722D01*
X0134986Y0044828D02*
X0132230Y0044828D01*
X0129868Y0047191D01*
X0129868Y0064049D01*
X0129998Y0064179D01*
X0129998Y0074698D01*
X0127348Y0077348D01*
X0129868Y0114120D02*
X0143844Y0114120D01*
X0149553Y0119828D01*
X0178978Y0119828D01*
X0198962Y0119828D01*
X0204671Y0114120D01*
X0218923Y0114120D01*
X0224631Y0119828D01*
X0210065Y0119828D02*
X0207372Y0119828D01*
X0205100Y0122100D01*
X0205100Y0149596D01*
X0202348Y0152348D01*
X0179080Y0119931D02*
X0178978Y0119828D01*
X0134986Y0119828D02*
X0132033Y0119828D01*
X0129868Y0121994D01*
X0129868Y0139049D01*
X0129998Y0139179D01*
X0129998Y0149698D01*
X0127348Y0152348D01*
X0124159Y0119828D02*
X0129868Y0114120D01*
X0124159Y0119828D02*
X0074631Y0119828D01*
X0060065Y0119828D02*
X0057230Y0119828D01*
X0055065Y0121994D01*
X0055065Y0149631D01*
X0052348Y0152348D01*
X0057033Y0194828D02*
X0060065Y0194828D01*
X0057033Y0194828D02*
X0055065Y0196797D01*
X0055065Y0224631D01*
X0052348Y0227348D01*
X0077348Y0237348D02*
X0083978Y0243978D01*
X0217450Y0243978D01*
X0228324Y0254852D01*
X0228198Y0247852D02*
X0217694Y0237348D01*
X0152348Y0237348D01*
X0157427Y0255852D02*
X0175143Y0255852D01*
X0188419Y0260411D02*
X0164025Y0284805D01*
X0164025Y0298801D01*
X0170025Y0304801D01*
X0170025Y0285801D02*
X0191226Y0264600D01*
X0211600Y0264600D01*
X0208419Y0260411D02*
X0188419Y0260411D01*
X0211600Y0255600D02*
X0211600Y0251600D01*
X0211600Y0255600D02*
X0224100Y0268100D01*
X0224100Y0278600D01*
X0230100Y0284600D01*
X0223600Y0282100D02*
X0236100Y0294600D01*
X0336600Y0294600D01*
X0323600Y0297600D02*
X0234600Y0297600D01*
X0220600Y0283600D01*
X0220600Y0278600D01*
X0224600Y0261600D02*
X0230600Y0261600D01*
X0233600Y0264600D01*
X0224600Y0261600D02*
X0218600Y0255600D01*
X0215600Y0255600D01*
X0202348Y0227348D02*
X0205100Y0224596D01*
X0205100Y0197100D01*
X0207372Y0194828D01*
X0210065Y0194828D01*
X0206639Y0188923D02*
X0218726Y0188923D01*
X0224631Y0194828D01*
X0206639Y0188923D02*
X0200734Y0194828D01*
X0175143Y0194828D01*
X0149553Y0194828D01*
X0143647Y0188923D01*
X0129868Y0188923D01*
X0123962Y0194828D01*
X0074631Y0194828D01*
X0129868Y0196797D02*
X0131836Y0194828D01*
X0134986Y0194828D01*
X0129868Y0196797D02*
X0129868Y0214049D01*
X0129998Y0214179D01*
X0129998Y0224698D01*
X0127348Y0227348D01*
X0157427Y0255852D02*
X0131836Y0281443D01*
X0211600Y0303100D02*
X0221044Y0303100D01*
X0222544Y0304600D01*
X0315600Y0304600D01*
X0319600Y0307600D02*
X0223544Y0307600D01*
X0222044Y0306100D01*
X0214600Y0306100D01*
X0217600Y0308600D02*
X0217989Y0308211D01*
X0221382Y0308211D01*
X0223771Y0310600D01*
X0323600Y0310600D01*
X0327600Y0313600D02*
X0223100Y0313600D01*
X0220600Y0311100D01*
D20*
X0220600Y0311100D03*
X0217600Y0308600D03*
X0214600Y0306100D03*
X0211600Y0303100D03*
X0188600Y0313600D03*
X0223600Y0282100D03*
X0220600Y0278600D03*
X0230100Y0284600D03*
X0247600Y0281100D03*
X0233600Y0264600D03*
X0228324Y0254852D03*
X0228198Y0247852D03*
X0215600Y0255600D03*
X0211600Y0251600D03*
X0208419Y0260411D03*
X0211600Y0264600D03*
X0175143Y0255852D03*
X0131836Y0281443D03*
X0120600Y0297600D03*
X0232600Y0322600D03*
X0315600Y0304600D03*
X0319600Y0307600D03*
X0323600Y0310600D03*
X0327600Y0313600D03*
X0323600Y0297600D03*
X0336600Y0294600D03*
X0175143Y0194828D03*
X0179080Y0119931D03*
X0183017Y0044722D03*
D21*
X0339600Y0259600D02*
X0341600Y0261600D01*
X0341600Y0287600D01*
X0335100Y0281100D01*
X0247600Y0281100D01*
X0232600Y0322600D02*
X0226600Y0328600D01*
X0323100Y0328600D01*
X0341600Y0310100D01*
X0341600Y0287600D01*
X0226600Y0328600D02*
X0181600Y0328600D01*
X0181600Y0320600D01*
X0188600Y0313600D01*
X0181600Y0328600D02*
X0147600Y0328600D01*
X0125167Y0306167D01*
X0112033Y0306167D01*
X0120600Y0297600D01*
X0112033Y0306167D02*
X0060998Y0306167D01*
X0060998Y0300098D01*
X0056500Y0295600D01*
X0052332Y0295600D01*
X0045340Y0288608D01*
D22*
X0329600Y0259600D02*
X0329600Y0249600D01*
X0329600Y0239600D01*
X0329600Y0229600D01*
X0329600Y0219600D01*
X0329600Y0209600D01*
X0329600Y0199600D01*
X0329600Y0189600D01*
X0329600Y0179600D01*
X0329600Y0169600D01*
X0329600Y0159600D01*
X0329600Y0149600D01*
X0329600Y0139600D01*
X0329600Y0129600D01*
X0329600Y0119600D01*
X0329600Y0109600D01*
X0329600Y0099600D01*
X0329600Y0089600D01*
X0329600Y0079600D01*
X0329600Y0069600D01*
X0329600Y0059600D01*
X0329600Y0049600D01*
X0329600Y0039600D01*
X0339600Y0039600D02*
X0339600Y0049600D01*
X0339600Y0059600D01*
X0339600Y0069600D01*
X0339600Y0079600D01*
X0339600Y0089600D01*
X0339600Y0099600D01*
X0339600Y0109600D01*
X0339600Y0119600D01*
X0339600Y0129600D01*
X0339600Y0139600D01*
X0339600Y0149600D01*
X0339600Y0159600D01*
X0339600Y0169600D01*
X0339600Y0179600D01*
X0339600Y0189600D01*
X0339600Y0199600D01*
X0339600Y0209600D01*
X0339600Y0219600D01*
X0339600Y0229600D01*
X0339600Y0239600D01*
X0339600Y0249600D01*
X0339600Y0259600D01*
M02*
