G75*
%MOIN*%
%OFA0B0*%
%FSLAX25Y25*%
%IPPOS*%
%LPD*%
%AMOC8*
5,1,8,0,0,1.08239X$1,22.5*
%
%ADD10C,0.00512*%
%ADD11C,0.00600*%
%ADD12C,0.10000*%
%ADD13C,0.08850*%
%ADD14C,0.06400*%
%ADD15C,0.02178*%
%ADD16C,0.01200*%
D10*
X0006600Y0001256D02*
X0006600Y0018933D01*
X0006856Y0008933D02*
X0016836Y0007909D01*
X0016836Y0007676D02*
X0006856Y0008933D01*
X0016836Y0009957D01*
X0016836Y0010190D02*
X0016836Y0007676D01*
X0016836Y0008421D02*
X0006856Y0008933D01*
X0016836Y0009445D01*
X0016836Y0010190D02*
X0006856Y0008933D01*
X0976344Y0008933D01*
X0966364Y0007909D01*
X0966364Y0007676D02*
X0976344Y0008933D01*
X0966364Y0009957D01*
X0966364Y0010190D02*
X0966364Y0007676D01*
X0966364Y0008421D02*
X0976344Y0008933D01*
X0966364Y0009445D01*
X0966364Y0010190D02*
X0976344Y0008933D01*
X0976600Y0001256D02*
X0976600Y0018933D01*
X1006600Y0038933D02*
X1019277Y0038933D01*
X1011600Y0039189D02*
X1012624Y0049169D01*
X1012857Y0049169D02*
X1011600Y0039189D01*
X1010576Y0049169D01*
X1010343Y0049169D02*
X1012857Y0049169D01*
X1012112Y0049169D02*
X1011600Y0039189D01*
X1011088Y0049169D01*
X1010343Y0049169D02*
X1011600Y0039189D01*
X1011600Y0428677D01*
X1012624Y0418697D01*
X1012857Y0418697D02*
X1011600Y0428677D01*
X1010576Y0418697D01*
X1010343Y0418697D02*
X1012857Y0418697D01*
X1012112Y0418697D02*
X1011600Y0428677D01*
X1011088Y0418697D01*
X1010343Y0418697D02*
X1011600Y0428677D01*
X1006600Y0428933D02*
X1019277Y0428933D01*
D11*
X0916600Y0358933D02*
X0916600Y0298933D01*
X0916600Y0288933D01*
X0914100Y0286433D01*
X0916600Y0283933D01*
X0916600Y0213933D01*
X0914100Y0211433D01*
X0916600Y0208933D01*
X0916600Y0138933D01*
X0914100Y0136433D01*
X0841600Y0138933D02*
X0839100Y0136433D01*
X0841600Y0138933D02*
X0841600Y0208933D01*
X0839100Y0211433D01*
X0841600Y0213933D01*
X0841600Y0283933D01*
X0839100Y0286433D01*
X0841600Y0288933D01*
X0841600Y0297433D01*
X0841600Y0358933D01*
X0839100Y0361433D01*
X0766600Y0358933D02*
X0766600Y0298933D01*
X0766600Y0288933D01*
X0764100Y0286433D01*
X0766600Y0283933D01*
X0766600Y0213933D01*
X0764100Y0211433D01*
X0766600Y0208933D01*
X0766600Y0138933D01*
X0764100Y0136433D01*
X0691600Y0138933D02*
X0689100Y0136433D01*
X0691600Y0138933D02*
X0691600Y0208933D01*
X0689100Y0211433D01*
X0691600Y0213933D01*
X0691600Y0283933D01*
X0689100Y0286433D01*
X0691600Y0288933D01*
X0691600Y0299933D01*
X0691600Y0358933D01*
X0689100Y0361433D01*
X0616600Y0358933D02*
X0616600Y0300933D01*
X0616600Y0288933D01*
X0614100Y0286433D01*
X0616600Y0283933D01*
X0616600Y0213933D01*
X0614100Y0211433D01*
X0616600Y0208933D01*
X0616600Y0138933D01*
X0614100Y0136433D01*
X0541600Y0176433D02*
X0501600Y0136433D01*
X0541600Y0176433D02*
X0541600Y0208933D01*
X0539100Y0211433D01*
X0541600Y0213933D01*
X0541600Y0284433D01*
X0539600Y0286433D01*
X0539100Y0286433D01*
X0541600Y0288933D01*
X0541600Y0302433D01*
X0541600Y0358933D01*
X0539100Y0361433D01*
X0466600Y0358933D02*
X0466600Y0302933D01*
X0466600Y0288933D01*
X0464100Y0286433D01*
X0466600Y0283933D01*
X0466600Y0213933D01*
X0464100Y0211433D01*
X0391600Y0208933D02*
X0391600Y0138933D01*
X0389100Y0136433D01*
X0316600Y0138933D02*
X0314100Y0136433D01*
X0316600Y0138933D02*
X0316600Y0208933D01*
X0314100Y0211433D01*
X0316600Y0213933D01*
X0316600Y0283933D01*
X0314100Y0286433D01*
X0316600Y0288933D01*
X0316600Y0304933D01*
X0316600Y0358933D01*
X0314100Y0361433D01*
X0256600Y0358933D02*
X0256600Y0311433D01*
X0261600Y0306433D01*
X0261600Y0238933D01*
X0256600Y0233933D02*
X0256600Y0286433D01*
X0259100Y0288933D01*
X0259100Y0304433D01*
X0258100Y0305433D01*
X0255100Y0308433D02*
X0255100Y0221433D01*
X0257600Y0218933D01*
X0261600Y0218933D01*
X0261600Y0228933D02*
X0256600Y0233933D01*
X0271600Y0228933D02*
X0276600Y0228933D01*
X0281600Y0233933D01*
X0281600Y0238933D01*
X0271600Y0248933D01*
X0271600Y0304933D01*
X0261600Y0314933D01*
X0261600Y0318933D02*
X0271600Y0318933D01*
X0255100Y0308433D02*
X0242100Y0321433D01*
X0239100Y0326433D02*
X0241600Y0328933D01*
X0241600Y0358933D01*
X0239100Y0361433D01*
X0224600Y0369933D02*
X0220100Y0369933D01*
X0198600Y0348433D01*
X0198600Y0342933D01*
X0197600Y0339215D02*
X0193100Y0343715D01*
X0191600Y0343715D01*
X0192600Y0340933D02*
X0199600Y0333933D01*
X0205600Y0333933D01*
X0220600Y0318933D01*
X0232100Y0318933D01*
X0231600Y0323933D02*
X0219100Y0323933D01*
X0203818Y0339215D01*
X0197600Y0339215D01*
X0192600Y0340933D02*
X0190100Y0340933D01*
X0188100Y0338933D01*
X0185600Y0331433D02*
X0205100Y0331433D01*
X0231100Y0305433D01*
X0232100Y0305433D01*
X0207600Y0312877D02*
X0185056Y0290333D01*
X0168000Y0290333D01*
X0164100Y0286433D01*
X0166600Y0283933D01*
X0166600Y0213933D01*
X0164100Y0211433D01*
X0166600Y0208933D01*
X0166600Y0138933D01*
X0164100Y0136433D01*
X0239100Y0136433D02*
X0241600Y0138933D01*
X0241600Y0208933D01*
X0239100Y0211433D01*
X0241600Y0213933D01*
X0241600Y0283933D01*
X0239100Y0286433D01*
X0239100Y0326433D01*
X0206600Y0316433D02*
X0184100Y0293933D01*
X0096600Y0293933D01*
X0089100Y0286433D01*
X0092100Y0289433D01*
X0092100Y0358433D01*
X0089100Y0361433D01*
X0082100Y0353433D02*
X0081600Y0353433D01*
X0075100Y0359933D01*
X0075100Y0384933D01*
X0164100Y0361433D02*
X0166600Y0358933D01*
X0166600Y0337933D01*
X0151600Y0322933D01*
X0151600Y0303433D01*
X0158600Y0296433D01*
X0195600Y0324933D02*
X0201600Y0318933D01*
X0195600Y0324933D02*
X0157600Y0324933D01*
X0122100Y0324933D02*
X0099600Y0324933D01*
X0089100Y0286433D02*
X0091600Y0283933D01*
X0091600Y0213933D01*
X0089100Y0211433D01*
X0091600Y0208933D01*
X0091600Y0138933D01*
X0089100Y0136433D01*
X0184600Y0099996D02*
X0184600Y0265933D01*
X0187100Y0268933D02*
X0187100Y0174996D01*
X0189600Y0249996D02*
X0189600Y0271933D01*
X0207600Y0312877D02*
X0207600Y0312933D01*
X0389100Y0286433D02*
X0391600Y0288933D01*
X0391600Y0303933D01*
X0391600Y0358933D01*
X0389100Y0361433D01*
X0464100Y0361433D02*
X0466600Y0358933D01*
X0614100Y0361433D02*
X0616600Y0358933D01*
X0764100Y0361433D02*
X0766600Y0358933D01*
X0914100Y0361433D02*
X0916600Y0358933D01*
X1002639Y0245438D02*
X1002641Y0245332D01*
X1002647Y0245225D01*
X1002657Y0245120D01*
X1002671Y0245014D01*
X1002689Y0244909D01*
X1002710Y0244805D01*
X1002736Y0244702D01*
X1002765Y0244600D01*
X1002799Y0244499D01*
X1002836Y0244399D01*
X1002876Y0244301D01*
X1002921Y0244204D01*
X1002969Y0244109D01*
X1003020Y0244016D01*
X1003075Y0243925D01*
X1003133Y0243836D01*
X1003195Y0243749D01*
X1003259Y0243665D01*
X1003327Y0243583D01*
X1003398Y0243504D01*
X1003472Y0243427D01*
X1003549Y0243353D01*
X1003628Y0243282D01*
X1003710Y0243214D01*
X1003794Y0243150D01*
X1003881Y0243088D01*
X1003970Y0243030D01*
X1004061Y0242975D01*
X1004154Y0242924D01*
X1004249Y0242876D01*
X1004346Y0242831D01*
X1004444Y0242791D01*
X1004544Y0242754D01*
X1004645Y0242720D01*
X1004747Y0242691D01*
X1004850Y0242665D01*
X1004954Y0242644D01*
X1005059Y0242626D01*
X1005165Y0242612D01*
X1005270Y0242602D01*
X1005377Y0242596D01*
X1005483Y0242594D01*
X1007260Y0242594D01*
X1008149Y0236973D02*
X1008022Y0236913D01*
X1007893Y0236857D01*
X1007763Y0236804D01*
X1007631Y0236754D01*
X1007498Y0236708D01*
X1007364Y0236666D01*
X1007229Y0236627D01*
X1007092Y0236591D01*
X1006955Y0236560D01*
X1006817Y0236532D01*
X1006679Y0236507D01*
X1006540Y0236487D01*
X1006400Y0236470D01*
X1006260Y0236457D01*
X1006119Y0236448D01*
X1005979Y0236442D01*
X1005838Y0236440D01*
X1005838Y0239995D02*
X1005697Y0239993D01*
X1005557Y0239987D01*
X1005416Y0239978D01*
X1005276Y0239965D01*
X1005136Y0239948D01*
X1004997Y0239928D01*
X1004859Y0239903D01*
X1004721Y0239875D01*
X1004584Y0239844D01*
X1004447Y0239808D01*
X1004312Y0239769D01*
X1004178Y0239727D01*
X1004045Y0239681D01*
X1003913Y0239631D01*
X1003783Y0239578D01*
X1003654Y0239522D01*
X1003527Y0239462D01*
X1004060Y0239640D02*
X1007616Y0236795D01*
X1009039Y0238217D02*
X1009037Y0238288D01*
X1009031Y0238359D01*
X1009022Y0238429D01*
X1009008Y0238499D01*
X1008991Y0238568D01*
X1008971Y0238635D01*
X1008946Y0238702D01*
X1008918Y0238767D01*
X1008887Y0238831D01*
X1008852Y0238893D01*
X1008814Y0238953D01*
X1008773Y0239010D01*
X1008729Y0239066D01*
X1008681Y0239119D01*
X1008631Y0239169D01*
X1008579Y0239217D01*
X1008524Y0239262D01*
X1008466Y0239303D01*
X1008406Y0239342D01*
X1008345Y0239377D01*
X1008281Y0239409D01*
X1008216Y0239437D01*
X1008150Y0239462D01*
X1009039Y0238217D02*
X1009037Y0238146D01*
X1009031Y0238075D01*
X1009022Y0238005D01*
X1009008Y0237935D01*
X1008991Y0237866D01*
X1008971Y0237799D01*
X1008946Y0237732D01*
X1008918Y0237667D01*
X1008887Y0237603D01*
X1008852Y0237541D01*
X1008814Y0237481D01*
X1008773Y0237423D01*
X1008729Y0237368D01*
X1008681Y0237315D01*
X1008631Y0237265D01*
X1008579Y0237217D01*
X1008524Y0237172D01*
X1008466Y0237131D01*
X1008406Y0237092D01*
X1008345Y0237057D01*
X1008281Y0237025D01*
X1008216Y0236997D01*
X1008150Y0236972D01*
X1008683Y0234087D02*
X1009038Y0234087D01*
X1009038Y0233732D01*
X1008683Y0233732D01*
X1008683Y0234087D01*
X1008149Y0239462D02*
X1008022Y0239522D01*
X1007893Y0239578D01*
X1007763Y0239631D01*
X1007631Y0239681D01*
X1007498Y0239727D01*
X1007364Y0239769D01*
X1007229Y0239808D01*
X1007092Y0239844D01*
X1006955Y0239875D01*
X1006817Y0239903D01*
X1006679Y0239928D01*
X1006540Y0239948D01*
X1006400Y0239965D01*
X1006260Y0239978D01*
X1006119Y0239987D01*
X1005979Y0239993D01*
X1005838Y0239995D01*
X1005838Y0236440D02*
X1005697Y0236442D01*
X1005557Y0236448D01*
X1005416Y0236457D01*
X1005276Y0236470D01*
X1005136Y0236487D01*
X1004997Y0236507D01*
X1004859Y0236532D01*
X1004721Y0236560D01*
X1004584Y0236591D01*
X1004447Y0236627D01*
X1004312Y0236666D01*
X1004178Y0236708D01*
X1004045Y0236754D01*
X1003913Y0236804D01*
X1003783Y0236857D01*
X1003654Y0236913D01*
X1003527Y0236973D01*
X1002638Y0238217D02*
X1002640Y0238288D01*
X1002646Y0238359D01*
X1002655Y0238429D01*
X1002669Y0238499D01*
X1002686Y0238568D01*
X1002706Y0238635D01*
X1002731Y0238702D01*
X1002759Y0238767D01*
X1002790Y0238831D01*
X1002825Y0238893D01*
X1002863Y0238953D01*
X1002904Y0239011D01*
X1002948Y0239066D01*
X1002996Y0239119D01*
X1003046Y0239169D01*
X1003098Y0239217D01*
X1003153Y0239262D01*
X1003211Y0239303D01*
X1003271Y0239342D01*
X1003332Y0239377D01*
X1003396Y0239409D01*
X1003461Y0239437D01*
X1003527Y0239462D01*
X1002638Y0238217D02*
X1002640Y0238146D01*
X1002646Y0238075D01*
X1002655Y0238005D01*
X1002669Y0237935D01*
X1002686Y0237866D01*
X1002706Y0237799D01*
X1002731Y0237732D01*
X1002759Y0237667D01*
X1002790Y0237603D01*
X1002825Y0237541D01*
X1002863Y0237481D01*
X1002904Y0237423D01*
X1002948Y0237368D01*
X1002996Y0237315D01*
X1003046Y0237265D01*
X1003098Y0237217D01*
X1003153Y0237172D01*
X1003211Y0237131D01*
X1003271Y0237092D01*
X1003332Y0237057D01*
X1003396Y0237025D01*
X1003461Y0236997D01*
X1003527Y0236972D01*
X1004416Y0231380D02*
X1006194Y0231380D01*
X1006194Y0229246D01*
X1006194Y0231379D02*
X1006298Y0231377D01*
X1006402Y0231371D01*
X1006505Y0231362D01*
X1006608Y0231349D01*
X1006711Y0231332D01*
X1006812Y0231311D01*
X1006913Y0231287D01*
X1007013Y0231258D01*
X1007112Y0231227D01*
X1007210Y0231191D01*
X1007306Y0231152D01*
X1007401Y0231110D01*
X1007494Y0231064D01*
X1007586Y0231015D01*
X1007676Y0230963D01*
X1007763Y0230907D01*
X1007849Y0230848D01*
X1007932Y0230786D01*
X1008013Y0230721D01*
X1008092Y0230653D01*
X1008168Y0230582D01*
X1008241Y0230509D01*
X1008312Y0230433D01*
X1008380Y0230354D01*
X1008445Y0230273D01*
X1008507Y0230190D01*
X1008566Y0230104D01*
X1008622Y0230017D01*
X1008674Y0229927D01*
X1008723Y0229835D01*
X1008769Y0229742D01*
X1008811Y0229647D01*
X1008850Y0229551D01*
X1008886Y0229453D01*
X1008917Y0229354D01*
X1008946Y0229254D01*
X1008970Y0229153D01*
X1008991Y0229052D01*
X1009008Y0228949D01*
X1009021Y0228846D01*
X1009030Y0228743D01*
X1009036Y0228639D01*
X1009038Y0228535D01*
X1004772Y0227824D02*
X1004416Y0227824D01*
X1004772Y0227824D02*
X1004846Y0227826D01*
X1004921Y0227832D01*
X1004994Y0227842D01*
X1005068Y0227855D01*
X1005140Y0227872D01*
X1005211Y0227894D01*
X1005282Y0227918D01*
X1005350Y0227947D01*
X1005418Y0227979D01*
X1005483Y0228015D01*
X1005546Y0228053D01*
X1005608Y0228096D01*
X1005667Y0228141D01*
X1005724Y0228189D01*
X1005778Y0228240D01*
X1005829Y0228294D01*
X1005877Y0228351D01*
X1005922Y0228410D01*
X1005965Y0228472D01*
X1006003Y0228535D01*
X1006039Y0228600D01*
X1006071Y0228668D01*
X1006100Y0228736D01*
X1006124Y0228807D01*
X1006146Y0228878D01*
X1006163Y0228950D01*
X1006176Y0229024D01*
X1006186Y0229097D01*
X1006192Y0229172D01*
X1006194Y0229246D01*
X1004416Y0227824D02*
X1004333Y0227826D01*
X1004250Y0227832D01*
X1004167Y0227842D01*
X1004084Y0227855D01*
X1004003Y0227873D01*
X1003922Y0227894D01*
X1003843Y0227919D01*
X1003765Y0227948D01*
X1003688Y0227980D01*
X1003613Y0228016D01*
X1003539Y0228055D01*
X1003468Y0228098D01*
X1003398Y0228144D01*
X1003331Y0228194D01*
X1003266Y0228246D01*
X1003204Y0228301D01*
X1003144Y0228360D01*
X1003087Y0228421D01*
X1003033Y0228484D01*
X1002982Y0228550D01*
X1002935Y0228619D01*
X1002890Y0228689D01*
X1002849Y0228762D01*
X1002812Y0228836D01*
X1002777Y0228912D01*
X1002747Y0228990D01*
X1002720Y0229068D01*
X1002697Y0229149D01*
X1002677Y0229230D01*
X1002662Y0229312D01*
X1002650Y0229394D01*
X1002642Y0229477D01*
X1002638Y0229560D01*
X1002638Y0229644D01*
X1002642Y0229727D01*
X1002650Y0229810D01*
X1002662Y0229892D01*
X1002677Y0229974D01*
X1002697Y0230055D01*
X1002720Y0230136D01*
X1002747Y0230214D01*
X1002777Y0230292D01*
X1002812Y0230368D01*
X1002849Y0230442D01*
X1002890Y0230515D01*
X1002935Y0230585D01*
X1002982Y0230654D01*
X1003033Y0230720D01*
X1003087Y0230783D01*
X1003144Y0230844D01*
X1003204Y0230903D01*
X1003266Y0230958D01*
X1003331Y0231010D01*
X1003398Y0231060D01*
X1003468Y0231106D01*
X1003539Y0231149D01*
X1003613Y0231188D01*
X1003688Y0231224D01*
X1003765Y0231256D01*
X1003843Y0231285D01*
X1003922Y0231310D01*
X1004003Y0231331D01*
X1004084Y0231349D01*
X1004167Y0231362D01*
X1004250Y0231372D01*
X1004333Y0231378D01*
X1004416Y0231380D01*
X1004416Y0225226D02*
X1006194Y0225226D01*
X1006194Y0223092D01*
X1006194Y0225225D02*
X1006298Y0225223D01*
X1006402Y0225217D01*
X1006505Y0225208D01*
X1006608Y0225195D01*
X1006711Y0225178D01*
X1006812Y0225157D01*
X1006913Y0225133D01*
X1007013Y0225104D01*
X1007112Y0225073D01*
X1007210Y0225037D01*
X1007306Y0224998D01*
X1007401Y0224956D01*
X1007494Y0224910D01*
X1007586Y0224861D01*
X1007676Y0224809D01*
X1007763Y0224753D01*
X1007849Y0224694D01*
X1007932Y0224632D01*
X1008013Y0224567D01*
X1008092Y0224499D01*
X1008168Y0224428D01*
X1008241Y0224355D01*
X1008312Y0224279D01*
X1008380Y0224200D01*
X1008445Y0224119D01*
X1008507Y0224036D01*
X1008566Y0223950D01*
X1008622Y0223863D01*
X1008674Y0223773D01*
X1008723Y0223681D01*
X1008769Y0223588D01*
X1008811Y0223493D01*
X1008850Y0223397D01*
X1008886Y0223299D01*
X1008917Y0223200D01*
X1008946Y0223100D01*
X1008970Y0222999D01*
X1008991Y0222898D01*
X1009008Y0222795D01*
X1009021Y0222692D01*
X1009030Y0222589D01*
X1009036Y0222485D01*
X1009038Y0222381D01*
X1004772Y0221670D02*
X1004416Y0221670D01*
X1004772Y0221670D02*
X1004846Y0221672D01*
X1004921Y0221678D01*
X1004994Y0221688D01*
X1005068Y0221701D01*
X1005140Y0221718D01*
X1005211Y0221740D01*
X1005282Y0221764D01*
X1005350Y0221793D01*
X1005418Y0221825D01*
X1005483Y0221861D01*
X1005546Y0221899D01*
X1005608Y0221942D01*
X1005667Y0221987D01*
X1005724Y0222035D01*
X1005778Y0222086D01*
X1005829Y0222140D01*
X1005877Y0222197D01*
X1005922Y0222256D01*
X1005965Y0222318D01*
X1006003Y0222381D01*
X1006039Y0222446D01*
X1006071Y0222514D01*
X1006100Y0222582D01*
X1006124Y0222653D01*
X1006146Y0222724D01*
X1006163Y0222796D01*
X1006176Y0222870D01*
X1006186Y0222943D01*
X1006192Y0223018D01*
X1006194Y0223092D01*
X1004416Y0221670D02*
X1004333Y0221672D01*
X1004250Y0221678D01*
X1004167Y0221688D01*
X1004084Y0221701D01*
X1004003Y0221719D01*
X1003922Y0221740D01*
X1003843Y0221765D01*
X1003765Y0221794D01*
X1003688Y0221826D01*
X1003613Y0221862D01*
X1003539Y0221901D01*
X1003468Y0221944D01*
X1003398Y0221990D01*
X1003331Y0222040D01*
X1003266Y0222092D01*
X1003204Y0222147D01*
X1003144Y0222206D01*
X1003087Y0222267D01*
X1003033Y0222330D01*
X1002982Y0222396D01*
X1002935Y0222465D01*
X1002890Y0222535D01*
X1002849Y0222608D01*
X1002812Y0222682D01*
X1002777Y0222758D01*
X1002747Y0222836D01*
X1002720Y0222914D01*
X1002697Y0222995D01*
X1002677Y0223076D01*
X1002662Y0223158D01*
X1002650Y0223240D01*
X1002642Y0223323D01*
X1002638Y0223406D01*
X1002638Y0223490D01*
X1002642Y0223573D01*
X1002650Y0223656D01*
X1002662Y0223738D01*
X1002677Y0223820D01*
X1002697Y0223901D01*
X1002720Y0223982D01*
X1002747Y0224060D01*
X1002777Y0224138D01*
X1002812Y0224214D01*
X1002849Y0224288D01*
X1002890Y0224361D01*
X1002935Y0224431D01*
X1002982Y0224500D01*
X1003033Y0224566D01*
X1003087Y0224629D01*
X1003144Y0224690D01*
X1003204Y0224749D01*
X1003266Y0224804D01*
X1003331Y0224856D01*
X1003398Y0224906D01*
X1003468Y0224952D01*
X1003539Y0224995D01*
X1003613Y0225034D01*
X1003688Y0225070D01*
X1003765Y0225102D01*
X1003843Y0225131D01*
X1003922Y0225156D01*
X1004003Y0225177D01*
X1004084Y0225195D01*
X1004167Y0225208D01*
X1004250Y0225218D01*
X1004333Y0225224D01*
X1004416Y0225226D01*
X1005483Y0242594D02*
X1005483Y0244727D01*
X1005485Y0244801D01*
X1005491Y0244876D01*
X1005501Y0244949D01*
X1005514Y0245023D01*
X1005531Y0245095D01*
X1005553Y0245166D01*
X1005577Y0245237D01*
X1005606Y0245305D01*
X1005638Y0245373D01*
X1005674Y0245438D01*
X1005712Y0245501D01*
X1005755Y0245563D01*
X1005800Y0245622D01*
X1005848Y0245679D01*
X1005899Y0245733D01*
X1005953Y0245784D01*
X1006010Y0245832D01*
X1006069Y0245877D01*
X1006131Y0245920D01*
X1006194Y0245958D01*
X1006259Y0245994D01*
X1006327Y0246026D01*
X1006395Y0246055D01*
X1006466Y0246079D01*
X1006537Y0246101D01*
X1006609Y0246118D01*
X1006683Y0246131D01*
X1006756Y0246141D01*
X1006831Y0246147D01*
X1006905Y0246149D01*
X1007260Y0246149D01*
X1007260Y0246150D02*
X1007343Y0246148D01*
X1007426Y0246142D01*
X1007509Y0246132D01*
X1007592Y0246119D01*
X1007673Y0246101D01*
X1007754Y0246080D01*
X1007833Y0246055D01*
X1007911Y0246026D01*
X1007988Y0245994D01*
X1008063Y0245958D01*
X1008137Y0245919D01*
X1008208Y0245876D01*
X1008278Y0245830D01*
X1008345Y0245780D01*
X1008410Y0245728D01*
X1008472Y0245673D01*
X1008532Y0245614D01*
X1008589Y0245553D01*
X1008643Y0245490D01*
X1008694Y0245424D01*
X1008741Y0245355D01*
X1008786Y0245285D01*
X1008827Y0245212D01*
X1008864Y0245138D01*
X1008899Y0245062D01*
X1008929Y0244984D01*
X1008956Y0244906D01*
X1008979Y0244825D01*
X1008999Y0244744D01*
X1009014Y0244662D01*
X1009026Y0244580D01*
X1009034Y0244497D01*
X1009038Y0244414D01*
X1009038Y0244330D01*
X1009034Y0244247D01*
X1009026Y0244164D01*
X1009014Y0244082D01*
X1008999Y0244000D01*
X1008979Y0243919D01*
X1008956Y0243838D01*
X1008929Y0243760D01*
X1008899Y0243682D01*
X1008864Y0243606D01*
X1008827Y0243532D01*
X1008786Y0243459D01*
X1008741Y0243389D01*
X1008694Y0243320D01*
X1008643Y0243254D01*
X1008589Y0243191D01*
X1008532Y0243130D01*
X1008472Y0243071D01*
X1008410Y0243016D01*
X1008345Y0242964D01*
X1008278Y0242914D01*
X1008208Y0242868D01*
X1008137Y0242825D01*
X1008063Y0242786D01*
X1007988Y0242750D01*
X1007911Y0242718D01*
X1007833Y0242689D01*
X1007754Y0242664D01*
X1007673Y0242643D01*
X1007592Y0242625D01*
X1007509Y0242612D01*
X1007426Y0242602D01*
X1007343Y0242596D01*
X1007260Y0242594D01*
X0499600Y0017895D02*
X0497467Y0017895D01*
X0499600Y0017895D02*
X0499674Y0017893D01*
X0499749Y0017887D01*
X0499822Y0017877D01*
X0499896Y0017864D01*
X0499968Y0017847D01*
X0500039Y0017825D01*
X0500110Y0017801D01*
X0500178Y0017772D01*
X0500246Y0017740D01*
X0500311Y0017704D01*
X0500374Y0017666D01*
X0500436Y0017623D01*
X0500495Y0017578D01*
X0500552Y0017530D01*
X0500606Y0017479D01*
X0500657Y0017425D01*
X0500705Y0017368D01*
X0500750Y0017309D01*
X0500793Y0017247D01*
X0500831Y0017184D01*
X0500867Y0017119D01*
X0500899Y0017051D01*
X0500928Y0016983D01*
X0500952Y0016912D01*
X0500974Y0016841D01*
X0500991Y0016769D01*
X0501004Y0016695D01*
X0501014Y0016622D01*
X0501020Y0016547D01*
X0501022Y0016473D01*
X0501020Y0016399D01*
X0501014Y0016324D01*
X0501004Y0016251D01*
X0500991Y0016177D01*
X0500974Y0016105D01*
X0500952Y0016034D01*
X0500928Y0015963D01*
X0500899Y0015895D01*
X0500867Y0015827D01*
X0500831Y0015762D01*
X0500793Y0015699D01*
X0500750Y0015637D01*
X0500705Y0015578D01*
X0500657Y0015521D01*
X0500606Y0015467D01*
X0500552Y0015416D01*
X0500495Y0015368D01*
X0500436Y0015323D01*
X0500374Y0015280D01*
X0500311Y0015242D01*
X0500246Y0015206D01*
X0500178Y0015174D01*
X0500110Y0015145D01*
X0500039Y0015121D01*
X0499968Y0015099D01*
X0499896Y0015082D01*
X0499822Y0015069D01*
X0499749Y0015059D01*
X0499674Y0015053D01*
X0499600Y0015051D01*
X0499600Y0015050D02*
X0498178Y0015050D01*
X0499245Y0015051D02*
X0499328Y0015049D01*
X0499411Y0015043D01*
X0499494Y0015033D01*
X0499577Y0015020D01*
X0499658Y0015002D01*
X0499739Y0014981D01*
X0499818Y0014956D01*
X0499896Y0014927D01*
X0499973Y0014895D01*
X0500048Y0014859D01*
X0500122Y0014820D01*
X0500193Y0014777D01*
X0500263Y0014731D01*
X0500330Y0014681D01*
X0500395Y0014629D01*
X0500457Y0014574D01*
X0500517Y0014515D01*
X0500574Y0014454D01*
X0500628Y0014391D01*
X0500679Y0014325D01*
X0500726Y0014256D01*
X0500771Y0014186D01*
X0500812Y0014113D01*
X0500849Y0014039D01*
X0500884Y0013963D01*
X0500914Y0013885D01*
X0500941Y0013807D01*
X0500964Y0013726D01*
X0500984Y0013645D01*
X0500999Y0013563D01*
X0501011Y0013481D01*
X0501019Y0013398D01*
X0501023Y0013315D01*
X0501023Y0013231D01*
X0501019Y0013148D01*
X0501011Y0013065D01*
X0500999Y0012983D01*
X0500984Y0012901D01*
X0500964Y0012820D01*
X0500941Y0012739D01*
X0500914Y0012661D01*
X0500884Y0012583D01*
X0500849Y0012507D01*
X0500812Y0012433D01*
X0500771Y0012360D01*
X0500726Y0012290D01*
X0500679Y0012221D01*
X0500628Y0012155D01*
X0500574Y0012092D01*
X0500517Y0012031D01*
X0500457Y0011972D01*
X0500395Y0011917D01*
X0500330Y0011865D01*
X0500263Y0011815D01*
X0500193Y0011769D01*
X0500122Y0011726D01*
X0500048Y0011687D01*
X0499973Y0011651D01*
X0499896Y0011619D01*
X0499818Y0011590D01*
X0499739Y0011565D01*
X0499658Y0011544D01*
X0499577Y0011526D01*
X0499494Y0011513D01*
X0499411Y0011503D01*
X0499328Y0011497D01*
X0499245Y0011495D01*
X0497467Y0011495D01*
X0495115Y0011495D02*
X0494759Y0011495D01*
X0494759Y0011850D01*
X0495115Y0011850D01*
X0495115Y0011495D01*
X0492407Y0013273D02*
X0492407Y0013628D01*
X0492405Y0013702D01*
X0492399Y0013777D01*
X0492389Y0013850D01*
X0492376Y0013924D01*
X0492359Y0013996D01*
X0492337Y0014067D01*
X0492313Y0014138D01*
X0492284Y0014206D01*
X0492252Y0014274D01*
X0492216Y0014339D01*
X0492178Y0014402D01*
X0492135Y0014464D01*
X0492090Y0014523D01*
X0492042Y0014580D01*
X0491991Y0014634D01*
X0491937Y0014685D01*
X0491880Y0014733D01*
X0491821Y0014778D01*
X0491759Y0014821D01*
X0491696Y0014859D01*
X0491631Y0014895D01*
X0491563Y0014927D01*
X0491495Y0014956D01*
X0491424Y0014980D01*
X0491353Y0015002D01*
X0491281Y0015019D01*
X0491207Y0015032D01*
X0491134Y0015042D01*
X0491059Y0015048D01*
X0490985Y0015050D01*
X0488851Y0015050D01*
X0488851Y0013273D01*
X0488853Y0013190D01*
X0488859Y0013107D01*
X0488869Y0013024D01*
X0488882Y0012941D01*
X0488900Y0012860D01*
X0488921Y0012779D01*
X0488946Y0012700D01*
X0488975Y0012622D01*
X0489007Y0012545D01*
X0489043Y0012470D01*
X0489082Y0012396D01*
X0489125Y0012325D01*
X0489171Y0012255D01*
X0489221Y0012188D01*
X0489273Y0012123D01*
X0489328Y0012061D01*
X0489387Y0012001D01*
X0489448Y0011944D01*
X0489511Y0011890D01*
X0489577Y0011839D01*
X0489646Y0011792D01*
X0489716Y0011747D01*
X0489789Y0011706D01*
X0489863Y0011669D01*
X0489939Y0011634D01*
X0490017Y0011604D01*
X0490095Y0011577D01*
X0490176Y0011554D01*
X0490257Y0011534D01*
X0490339Y0011519D01*
X0490421Y0011507D01*
X0490504Y0011499D01*
X0490587Y0011495D01*
X0490671Y0011495D01*
X0490754Y0011499D01*
X0490837Y0011507D01*
X0490919Y0011519D01*
X0491001Y0011534D01*
X0491082Y0011554D01*
X0491163Y0011577D01*
X0491241Y0011604D01*
X0491319Y0011634D01*
X0491395Y0011669D01*
X0491469Y0011706D01*
X0491542Y0011747D01*
X0491612Y0011792D01*
X0491681Y0011839D01*
X0491747Y0011890D01*
X0491810Y0011944D01*
X0491871Y0012001D01*
X0491930Y0012061D01*
X0491985Y0012123D01*
X0492037Y0012188D01*
X0492087Y0012255D01*
X0492133Y0012325D01*
X0492176Y0012396D01*
X0492215Y0012470D01*
X0492251Y0012545D01*
X0492283Y0012622D01*
X0492312Y0012700D01*
X0492337Y0012779D01*
X0492358Y0012860D01*
X0492376Y0012941D01*
X0492389Y0013024D01*
X0492399Y0013107D01*
X0492405Y0013190D01*
X0492407Y0013273D01*
X0488852Y0015050D02*
X0488854Y0015156D01*
X0488860Y0015263D01*
X0488870Y0015368D01*
X0488884Y0015474D01*
X0488902Y0015579D01*
X0488923Y0015683D01*
X0488949Y0015786D01*
X0488978Y0015888D01*
X0489012Y0015989D01*
X0489049Y0016089D01*
X0489089Y0016187D01*
X0489134Y0016284D01*
X0489182Y0016379D01*
X0489233Y0016472D01*
X0489288Y0016563D01*
X0489346Y0016652D01*
X0489408Y0016739D01*
X0489472Y0016823D01*
X0489540Y0016905D01*
X0489611Y0016984D01*
X0489685Y0017061D01*
X0489762Y0017135D01*
X0489841Y0017206D01*
X0489923Y0017274D01*
X0490007Y0017338D01*
X0490094Y0017400D01*
X0490183Y0017458D01*
X0490274Y0017513D01*
X0490367Y0017564D01*
X0490462Y0017612D01*
X0490559Y0017657D01*
X0490657Y0017697D01*
X0490757Y0017734D01*
X0490858Y0017768D01*
X0490960Y0017797D01*
X0491063Y0017823D01*
X0491167Y0017844D01*
X0491272Y0017862D01*
X0491378Y0017876D01*
X0491483Y0017886D01*
X0491590Y0017892D01*
X0491696Y0017894D01*
X0485186Y0014339D02*
X0485186Y0011495D01*
X0486253Y0012917D02*
X0482697Y0012917D01*
X0484120Y0017895D01*
X0479566Y0015050D02*
X0476543Y0011495D01*
X0480099Y0011495D01*
X0476543Y0016472D02*
X0476572Y0016557D01*
X0476605Y0016640D01*
X0476642Y0016721D01*
X0476682Y0016801D01*
X0476725Y0016878D01*
X0476772Y0016954D01*
X0476822Y0017028D01*
X0476875Y0017100D01*
X0476931Y0017169D01*
X0476990Y0017236D01*
X0477052Y0017300D01*
X0477117Y0017361D01*
X0477184Y0017420D01*
X0477254Y0017475D01*
X0477326Y0017528D01*
X0477400Y0017577D01*
X0477477Y0017623D01*
X0477555Y0017665D01*
X0477635Y0017705D01*
X0477717Y0017740D01*
X0477800Y0017773D01*
X0477884Y0017801D01*
X0477970Y0017826D01*
X0478057Y0017847D01*
X0478144Y0017864D01*
X0478232Y0017878D01*
X0478321Y0017887D01*
X0478410Y0017893D01*
X0478499Y0017895D01*
X0478578Y0017893D01*
X0478656Y0017887D01*
X0478734Y0017878D01*
X0478811Y0017864D01*
X0478888Y0017847D01*
X0478963Y0017826D01*
X0479038Y0017801D01*
X0479111Y0017773D01*
X0479183Y0017741D01*
X0479253Y0017706D01*
X0479322Y0017667D01*
X0479388Y0017625D01*
X0479452Y0017580D01*
X0479514Y0017532D01*
X0479573Y0017481D01*
X0479630Y0017426D01*
X0479685Y0017369D01*
X0479736Y0017310D01*
X0479784Y0017248D01*
X0479829Y0017184D01*
X0479871Y0017118D01*
X0479910Y0017049D01*
X0479945Y0016979D01*
X0479977Y0016907D01*
X0480005Y0016834D01*
X0480030Y0016759D01*
X0480051Y0016684D01*
X0480068Y0016607D01*
X0480082Y0016530D01*
X0480091Y0016452D01*
X0480097Y0016374D01*
X0480099Y0016295D01*
X0480097Y0016213D01*
X0480091Y0016131D01*
X0480081Y0016050D01*
X0480068Y0015969D01*
X0480050Y0015889D01*
X0480029Y0015810D01*
X0480004Y0015732D01*
X0479976Y0015656D01*
X0479943Y0015580D01*
X0479908Y0015507D01*
X0479868Y0015435D01*
X0479826Y0015365D01*
X0479780Y0015297D01*
X0479731Y0015232D01*
X0479679Y0015169D01*
X0479623Y0015108D01*
X0479566Y0015050D01*
X0503977Y0016473D02*
X0503979Y0016399D01*
X0503985Y0016324D01*
X0503995Y0016251D01*
X0504008Y0016177D01*
X0504025Y0016105D01*
X0504047Y0016034D01*
X0504071Y0015963D01*
X0504100Y0015895D01*
X0504132Y0015827D01*
X0504168Y0015762D01*
X0504206Y0015699D01*
X0504249Y0015637D01*
X0504294Y0015578D01*
X0504342Y0015521D01*
X0504393Y0015467D01*
X0504447Y0015416D01*
X0504504Y0015368D01*
X0504563Y0015323D01*
X0504625Y0015280D01*
X0504688Y0015242D01*
X0504753Y0015206D01*
X0504821Y0015174D01*
X0504889Y0015145D01*
X0504960Y0015121D01*
X0505031Y0015099D01*
X0505103Y0015082D01*
X0505177Y0015069D01*
X0505250Y0015059D01*
X0505325Y0015053D01*
X0505399Y0015051D01*
X0505473Y0015053D01*
X0505548Y0015059D01*
X0505621Y0015069D01*
X0505695Y0015082D01*
X0505767Y0015099D01*
X0505838Y0015121D01*
X0505909Y0015145D01*
X0505977Y0015174D01*
X0506045Y0015206D01*
X0506110Y0015242D01*
X0506173Y0015280D01*
X0506235Y0015323D01*
X0506294Y0015368D01*
X0506351Y0015416D01*
X0506405Y0015467D01*
X0506456Y0015521D01*
X0506504Y0015578D01*
X0506549Y0015637D01*
X0506592Y0015699D01*
X0506630Y0015762D01*
X0506666Y0015827D01*
X0506698Y0015895D01*
X0506727Y0015963D01*
X0506751Y0016034D01*
X0506773Y0016105D01*
X0506790Y0016177D01*
X0506803Y0016251D01*
X0506813Y0016324D01*
X0506819Y0016399D01*
X0506821Y0016473D01*
X0506819Y0016547D01*
X0506813Y0016622D01*
X0506803Y0016695D01*
X0506790Y0016769D01*
X0506773Y0016841D01*
X0506751Y0016912D01*
X0506727Y0016983D01*
X0506698Y0017051D01*
X0506666Y0017119D01*
X0506630Y0017184D01*
X0506592Y0017247D01*
X0506549Y0017309D01*
X0506504Y0017368D01*
X0506456Y0017425D01*
X0506405Y0017479D01*
X0506351Y0017530D01*
X0506294Y0017578D01*
X0506235Y0017623D01*
X0506173Y0017666D01*
X0506110Y0017704D01*
X0506045Y0017740D01*
X0505977Y0017772D01*
X0505909Y0017801D01*
X0505838Y0017825D01*
X0505767Y0017847D01*
X0505695Y0017864D01*
X0505621Y0017877D01*
X0505548Y0017887D01*
X0505473Y0017893D01*
X0505399Y0017895D01*
X0505325Y0017893D01*
X0505250Y0017887D01*
X0505177Y0017877D01*
X0505103Y0017864D01*
X0505031Y0017847D01*
X0504960Y0017825D01*
X0504889Y0017801D01*
X0504821Y0017772D01*
X0504753Y0017740D01*
X0504688Y0017704D01*
X0504625Y0017666D01*
X0504563Y0017623D01*
X0504504Y0017578D01*
X0504447Y0017530D01*
X0504393Y0017479D01*
X0504342Y0017425D01*
X0504294Y0017368D01*
X0504249Y0017309D01*
X0504206Y0017247D01*
X0504168Y0017184D01*
X0504132Y0017119D01*
X0504100Y0017051D01*
X0504071Y0016983D01*
X0504047Y0016912D01*
X0504025Y0016841D01*
X0504008Y0016769D01*
X0503995Y0016695D01*
X0503985Y0016622D01*
X0503979Y0016547D01*
X0503977Y0016473D01*
X0503621Y0013273D02*
X0503623Y0013190D01*
X0503629Y0013107D01*
X0503639Y0013024D01*
X0503652Y0012941D01*
X0503670Y0012860D01*
X0503691Y0012779D01*
X0503716Y0012700D01*
X0503745Y0012622D01*
X0503777Y0012545D01*
X0503813Y0012470D01*
X0503852Y0012396D01*
X0503895Y0012325D01*
X0503941Y0012255D01*
X0503991Y0012188D01*
X0504043Y0012123D01*
X0504098Y0012061D01*
X0504157Y0012001D01*
X0504218Y0011944D01*
X0504281Y0011890D01*
X0504347Y0011839D01*
X0504416Y0011792D01*
X0504486Y0011747D01*
X0504559Y0011706D01*
X0504633Y0011669D01*
X0504709Y0011634D01*
X0504787Y0011604D01*
X0504865Y0011577D01*
X0504946Y0011554D01*
X0505027Y0011534D01*
X0505109Y0011519D01*
X0505191Y0011507D01*
X0505274Y0011499D01*
X0505357Y0011495D01*
X0505441Y0011495D01*
X0505524Y0011499D01*
X0505607Y0011507D01*
X0505689Y0011519D01*
X0505771Y0011534D01*
X0505852Y0011554D01*
X0505933Y0011577D01*
X0506011Y0011604D01*
X0506089Y0011634D01*
X0506165Y0011669D01*
X0506239Y0011706D01*
X0506312Y0011747D01*
X0506382Y0011792D01*
X0506451Y0011839D01*
X0506517Y0011890D01*
X0506580Y0011944D01*
X0506641Y0012001D01*
X0506700Y0012061D01*
X0506755Y0012123D01*
X0506807Y0012188D01*
X0506857Y0012255D01*
X0506903Y0012325D01*
X0506946Y0012396D01*
X0506985Y0012470D01*
X0507021Y0012545D01*
X0507053Y0012622D01*
X0507082Y0012700D01*
X0507107Y0012779D01*
X0507128Y0012860D01*
X0507146Y0012941D01*
X0507159Y0013024D01*
X0507169Y0013107D01*
X0507175Y0013190D01*
X0507177Y0013273D01*
X0507175Y0013356D01*
X0507169Y0013439D01*
X0507159Y0013522D01*
X0507146Y0013605D01*
X0507128Y0013686D01*
X0507107Y0013767D01*
X0507082Y0013846D01*
X0507053Y0013924D01*
X0507021Y0014001D01*
X0506985Y0014076D01*
X0506946Y0014150D01*
X0506903Y0014221D01*
X0506857Y0014291D01*
X0506807Y0014358D01*
X0506755Y0014423D01*
X0506700Y0014485D01*
X0506641Y0014545D01*
X0506580Y0014602D01*
X0506517Y0014656D01*
X0506451Y0014707D01*
X0506382Y0014754D01*
X0506312Y0014799D01*
X0506239Y0014840D01*
X0506165Y0014877D01*
X0506089Y0014912D01*
X0506011Y0014942D01*
X0505933Y0014969D01*
X0505852Y0014992D01*
X0505771Y0015012D01*
X0505689Y0015027D01*
X0505607Y0015039D01*
X0505524Y0015047D01*
X0505441Y0015051D01*
X0505357Y0015051D01*
X0505274Y0015047D01*
X0505191Y0015039D01*
X0505109Y0015027D01*
X0505027Y0015012D01*
X0504946Y0014992D01*
X0504865Y0014969D01*
X0504787Y0014942D01*
X0504709Y0014912D01*
X0504633Y0014877D01*
X0504559Y0014840D01*
X0504486Y0014799D01*
X0504416Y0014754D01*
X0504347Y0014707D01*
X0504281Y0014656D01*
X0504218Y0014602D01*
X0504157Y0014545D01*
X0504098Y0014485D01*
X0504043Y0014423D01*
X0503991Y0014358D01*
X0503941Y0014291D01*
X0503895Y0014221D01*
X0503852Y0014150D01*
X0503813Y0014076D01*
X0503777Y0014001D01*
X0503745Y0013924D01*
X0503716Y0013846D01*
X0503691Y0013767D01*
X0503670Y0013686D01*
X0503652Y0013605D01*
X0503639Y0013522D01*
X0503629Y0013439D01*
X0503623Y0013356D01*
X0503621Y0013273D01*
X0391600Y0208933D02*
X0389100Y0211433D01*
X0391600Y0213933D01*
X0391600Y0283933D01*
X0389100Y0286433D01*
D12*
X0389100Y0286433D03*
X0364100Y0276433D03*
X0314100Y0286433D03*
X0289100Y0276433D03*
X0239100Y0286433D03*
X0214100Y0276433D03*
X0164100Y0286433D03*
X0139100Y0276433D03*
X0089100Y0286433D03*
X0064100Y0276433D03*
X0089100Y0211433D03*
X0064100Y0201433D03*
X0139100Y0201433D03*
X0164100Y0211433D03*
X0214100Y0201433D03*
X0239100Y0211433D03*
X0289100Y0201433D03*
X0314100Y0211433D03*
X0364100Y0201433D03*
X0389100Y0211433D03*
X0439100Y0201433D03*
X0464100Y0211433D03*
X0514100Y0201433D03*
X0539100Y0211433D03*
X0589100Y0201433D03*
X0614100Y0211433D03*
X0664100Y0201433D03*
X0689100Y0211433D03*
X0739100Y0201433D03*
X0764100Y0211433D03*
X0814100Y0201433D03*
X0839100Y0211433D03*
X0889100Y0201433D03*
X0914100Y0211433D03*
X0889100Y0276433D03*
X0914100Y0286433D03*
X0839100Y0286433D03*
X0814100Y0276433D03*
X0764100Y0286433D03*
X0739100Y0276433D03*
X0689100Y0286433D03*
X0664100Y0276433D03*
X0614100Y0286433D03*
X0589100Y0276433D03*
X0539100Y0286433D03*
X0514100Y0276433D03*
X0464100Y0286433D03*
X0439100Y0276433D03*
X0439100Y0351433D03*
X0464100Y0361433D03*
X0514100Y0351433D03*
X0539100Y0361433D03*
X0589100Y0351433D03*
X0614100Y0361433D03*
X0664100Y0351433D03*
X0689100Y0361433D03*
X0739100Y0351433D03*
X0764100Y0361433D03*
X0814100Y0351433D03*
X0839100Y0361433D03*
X0889100Y0351433D03*
X0914100Y0361433D03*
X0914100Y0136433D03*
X0889100Y0126433D03*
X0839100Y0136433D03*
X0814100Y0126433D03*
X0764100Y0136433D03*
X0739100Y0126433D03*
X0689100Y0136433D03*
X0664100Y0126433D03*
X0614100Y0136433D03*
X0589100Y0126433D03*
X0389100Y0136433D03*
X0364100Y0126433D03*
X0314100Y0136433D03*
X0289100Y0126433D03*
X0239100Y0136433D03*
X0214100Y0126433D03*
X0164100Y0136433D03*
X0139100Y0126433D03*
X0089100Y0136433D03*
X0064100Y0126433D03*
X0064100Y0351433D03*
X0089100Y0361433D03*
X0139100Y0351433D03*
X0164100Y0361433D03*
X0214100Y0351433D03*
X0239100Y0361433D03*
X0289100Y0351433D03*
X0314100Y0361433D03*
X0364100Y0351433D03*
X0389100Y0361433D03*
D13*
X0501600Y0136433D03*
X0476600Y0126433D03*
D14*
X0271600Y0218933D03*
X0261600Y0218933D03*
X0261600Y0228933D03*
X0271600Y0228933D03*
X0271600Y0238933D03*
X0261600Y0238933D03*
D15*
X0189600Y0249996D03*
X0184600Y0265933D03*
X0187100Y0268933D03*
X0189600Y0271933D03*
X0180600Y0296933D03*
X0169100Y0308433D03*
X0158600Y0296433D03*
X0116600Y0288933D03*
X0081600Y0308933D03*
X0099600Y0324933D03*
X0122100Y0324933D03*
X0157600Y0324933D03*
X0185600Y0331433D03*
X0188100Y0338933D03*
X0191600Y0343715D03*
X0198600Y0342933D03*
X0231600Y0323933D03*
X0232100Y0318933D03*
X0239100Y0326433D03*
X0242100Y0321433D03*
X0261600Y0318933D03*
X0261600Y0314933D03*
X0271600Y0318933D03*
X0258100Y0305433D03*
X0232100Y0305433D03*
X0207600Y0312933D03*
X0206600Y0316433D03*
X0201600Y0318933D03*
X0256600Y0358933D03*
X0224600Y0369933D03*
X0266600Y0377433D03*
X0316600Y0304933D03*
X0391600Y0303933D03*
X0466600Y0302933D03*
X0541600Y0302433D03*
X0616600Y0300933D03*
X0691600Y0299933D03*
X0766600Y0298933D03*
X0841600Y0297433D03*
X0916600Y0298933D03*
X0187100Y0174996D03*
X0121600Y0238933D03*
X0082100Y0353433D03*
X0051100Y0362433D03*
X0075100Y0384933D03*
X0184600Y0099996D03*
D16*
X0271600Y0218933D02*
X0286600Y0233933D01*
X0286600Y0248933D01*
X0276600Y0258933D01*
X0276600Y0367433D01*
X0266600Y0377433D01*
X0180600Y0296933D02*
X0169100Y0308433D01*
X0116600Y0288933D02*
X0116600Y0243933D01*
X0121600Y0238933D01*
X0081600Y0308933D02*
X0066600Y0308933D01*
X0051100Y0324433D01*
X0051100Y0362433D01*
M02*
