%
M48
M72
T01C0.01378
T02C0.02559
T03C0.05900
T04C0.07000
T05C0.12000
T06C0.12598
T07C0.15700
%
T01
X184600Y99996
X187100Y174996
X189600Y249996
X184600Y265933
X187100Y268933
X189600Y271933
X180600Y296933
X169100Y308433
X153100Y302433
X201600Y318933
X206600Y316433
X207600Y312933
X239100Y317933
X261600Y318933
X271600Y318933
X314100Y304933
X389100Y303933
X464100Y302933
X539100Y301933
X614100Y300933
X689100Y299933
X764100Y298933
X839100Y297433
X914100Y298933
X216600Y363933
X181600Y373933
X169100Y374933
X171600Y383933
X176600Y393933
X165100Y398933
X125600Y352933
X171600Y335344
X181600Y343933
X179100Y346933
X197600Y343933
X157600Y324933
X122100Y324933
X92600Y324933
T02
X95978Y404429
X73222Y404429
T03
X89100Y361433
X64100Y351433
X139100Y351433
X164100Y361433
X214100Y351433
X239100Y361433
X289100Y351433
X314100Y361433
X364100Y351433
X389100Y361433
X439100Y351433
X464100Y361433
X514100Y351433
X539100Y361433
X589100Y351433
X614100Y361433
X664100Y351433
X689100Y361433
X739100Y351433
X764100Y361433
X814100Y351433
X839100Y361433
X889100Y351433
X914100Y361433
X914100Y286433
X889100Y276433
X839100Y286433
X814100Y276433
X764100Y286433
X739100Y276433
X689100Y286433
X664100Y276433
X614100Y286433
X589100Y276433
X539100Y286433
X514100Y276433
X464100Y286433
X439100Y276433
X389100Y286433
X364100Y276433
X314100Y286433
X289100Y276433
X239100Y286433
X214100Y276433
X164100Y286433
X139100Y276433
X89100Y286433
X64100Y276433
X89100Y211433
X64100Y201433
X139100Y201433
X164100Y211433
X214100Y201433
X239100Y211433
X289100Y201433
X314100Y211433
X364100Y201433
X389100Y211433
X439100Y201433
X464100Y211433
X514100Y201433
X539100Y211433
X589100Y201433
X614100Y211433
X664100Y201433
X689100Y211433
X739100Y201433
X764100Y211433
X814100Y201433
X839100Y211433
X889100Y201433
X914100Y211433
X914100Y136433
X889100Y126433
X839100Y136433
X814100Y126433
X764100Y136433
X739100Y126433
X689100Y136433
X664100Y126433
X614100Y136433
X589100Y126433
X501600Y136433
X476600Y126433
X389100Y136433
X364100Y126433
X314100Y136433
X289100Y126433
X239100Y136433
X214100Y126433
X164100Y136433
X139100Y126433
X89100Y136433
X64100Y126433
T04
X59100Y116433
X99100Y116433
X134100Y116433
X174100Y116433
X209100Y116433
X249100Y116433
X284100Y116433
X324100Y116433
X359100Y116433
X399100Y116433
X471600Y116433
X511600Y116433
X584100Y116433
X624100Y116433
X659100Y116433
X699100Y116433
X734100Y116433
X774100Y116433
X809100Y116433
X849100Y116433
X884100Y116433
X924100Y116433
X924100Y191433
X884100Y191433
X849100Y191433
X809100Y191433
X774100Y191433
X734100Y191433
X699100Y191433
X659100Y191433
X624100Y191433
X584100Y191433
X549100Y191433
X509100Y191433
X474100Y191433
X434100Y191433
X399100Y191433
X359100Y191433
X324100Y191433
X284100Y191433
X249100Y191433
X209100Y191433
X174100Y191433
X134100Y191433
X99100Y191433
X59100Y191433
X59100Y266433
X99100Y266433
X134100Y266433
X174100Y266433
X209100Y266433
X249100Y266433
X284100Y266433
X324100Y266433
X359100Y266433
X399100Y266433
X434100Y266433
X474100Y266433
X509100Y266433
X549100Y266433
X584100Y266433
X624100Y266433
X659100Y266433
X699100Y266433
X734100Y266433
X774100Y266433
X809100Y266433
X849100Y266433
X884100Y266433
X924100Y266433
X924100Y341433
X884100Y341433
X849100Y341433
X809100Y341433
X774100Y341433
X734100Y341433
X699100Y341433
X659100Y341433
X624100Y341433
X584100Y341433
X549100Y341433
X509100Y341433
X474100Y341433
X434100Y341433
X399100Y341433
X359100Y341433
X324100Y341433
X284100Y341433
X249100Y341433
X209100Y341433
X174100Y341433
X134100Y341433
X99100Y341433
X59100Y341433
T05
X444600Y143933
X538600Y143933
T06
X31600Y63933
X31600Y403933
X951600Y403933
X951600Y63933
T07
X904100Y116433
X829100Y116433
X754100Y116433
X679100Y116433
X604100Y116433
X538600Y83933
X491600Y116433
X444600Y83933
X379100Y116433
X304100Y116433
X229100Y116433
X154100Y116433
X79100Y116433
X79100Y191433
X154100Y191433
X229100Y191433
X304100Y191433
X379100Y191433
X454100Y191433
X529100Y191433
X604100Y191433
X679100Y191433
X754100Y191433
X829100Y191433
X904100Y191433
X904100Y266433
X829100Y266433
X754100Y266433
X679100Y266433
X604100Y266433
X529100Y266433
X454100Y266433
X379100Y266433
X304100Y266433
X229100Y266433
X154100Y266433
X79100Y266433
X79100Y341433
X154100Y341433
X229100Y341433
X304100Y341433
X379100Y341433
X454100Y341433
X529100Y341433
X604100Y341433
X679100Y341433
X754100Y341433
X829100Y341433
X904100Y341433
M30
