G75*
%MOIN*%
%OFA0B0*%
%FSLAX25Y25*%
%IPPOS*%
%LPD*%
%AMOC8*
5,1,8,0,0,1.08239X$1,22.5*
%
%ADD10C,0.16300*%
%ADD11C,0.07600*%
%ADD12C,0.10600*%
%ADD13C,0.09450*%
%ADD14C,0.12600*%
%ADD15C,0.03159*%
%ADD16C,0.13198*%
D10*
X0079100Y0116433D03*
X0154100Y0116433D03*
X0229100Y0116433D03*
X0304100Y0116433D03*
X0379100Y0116433D03*
X0444600Y0083933D03*
X0491600Y0116433D03*
X0538600Y0083933D03*
X0604100Y0116433D03*
X0679100Y0116433D03*
X0754100Y0116433D03*
X0829100Y0116433D03*
X0904100Y0116433D03*
X0904100Y0191433D03*
X0829100Y0191433D03*
X0754100Y0191433D03*
X0679100Y0191433D03*
X0604100Y0191433D03*
X0529100Y0191433D03*
X0454100Y0191433D03*
X0379100Y0191433D03*
X0304100Y0191433D03*
X0229100Y0191433D03*
X0154100Y0191433D03*
X0079100Y0191433D03*
X0079100Y0266433D03*
X0154100Y0266433D03*
X0229100Y0266433D03*
X0304100Y0266433D03*
X0379100Y0266433D03*
X0454100Y0266433D03*
X0529100Y0266433D03*
X0604100Y0266433D03*
X0679100Y0266433D03*
X0754100Y0266433D03*
X0829100Y0266433D03*
X0904100Y0266433D03*
X0904100Y0341433D03*
X0829100Y0341433D03*
X0754100Y0341433D03*
X0679100Y0341433D03*
X0604100Y0341433D03*
X0529100Y0341433D03*
X0454100Y0341433D03*
X0379100Y0341433D03*
X0304100Y0341433D03*
X0229100Y0341433D03*
X0154100Y0341433D03*
X0079100Y0341433D03*
D11*
X0059100Y0341433D03*
X0099100Y0341433D03*
X0134100Y0341433D03*
X0174100Y0341433D03*
X0209100Y0341433D03*
X0249100Y0341433D03*
X0284100Y0341433D03*
X0324100Y0341433D03*
X0359100Y0341433D03*
X0399100Y0341433D03*
X0434100Y0341433D03*
X0474100Y0341433D03*
X0509100Y0341433D03*
X0549100Y0341433D03*
X0584100Y0341433D03*
X0624100Y0341433D03*
X0659100Y0341433D03*
X0699100Y0341433D03*
X0734100Y0341433D03*
X0774100Y0341433D03*
X0809100Y0341433D03*
X0849100Y0341433D03*
X0884100Y0341433D03*
X0924100Y0341433D03*
X0924100Y0266433D03*
X0884100Y0266433D03*
X0849100Y0266433D03*
X0809100Y0266433D03*
X0774100Y0266433D03*
X0734100Y0266433D03*
X0699100Y0266433D03*
X0659100Y0266433D03*
X0624100Y0266433D03*
X0584100Y0266433D03*
X0549100Y0266433D03*
X0509100Y0266433D03*
X0474100Y0266433D03*
X0434100Y0266433D03*
X0399100Y0266433D03*
X0359100Y0266433D03*
X0324100Y0266433D03*
X0284100Y0266433D03*
X0249100Y0266433D03*
X0209100Y0266433D03*
X0174100Y0266433D03*
X0134100Y0266433D03*
X0099100Y0266433D03*
X0059100Y0266433D03*
X0059100Y0191433D03*
X0099100Y0191433D03*
X0134100Y0191433D03*
X0174100Y0191433D03*
X0209100Y0191433D03*
X0249100Y0191433D03*
X0284100Y0191433D03*
X0324100Y0191433D03*
X0359100Y0191433D03*
X0399100Y0191433D03*
X0434100Y0191433D03*
X0474100Y0191433D03*
X0509100Y0191433D03*
X0549100Y0191433D03*
X0584100Y0191433D03*
X0624100Y0191433D03*
X0659100Y0191433D03*
X0699100Y0191433D03*
X0734100Y0191433D03*
X0774100Y0191433D03*
X0809100Y0191433D03*
X0849100Y0191433D03*
X0884100Y0191433D03*
X0924100Y0191433D03*
X0924100Y0116433D03*
X0884100Y0116433D03*
X0849100Y0116433D03*
X0809100Y0116433D03*
X0774100Y0116433D03*
X0734100Y0116433D03*
X0699100Y0116433D03*
X0659100Y0116433D03*
X0624100Y0116433D03*
X0584100Y0116433D03*
X0511600Y0116433D03*
X0471600Y0116433D03*
X0399100Y0116433D03*
X0359100Y0116433D03*
X0324100Y0116433D03*
X0284100Y0116433D03*
X0249100Y0116433D03*
X0209100Y0116433D03*
X0174100Y0116433D03*
X0134100Y0116433D03*
X0099100Y0116433D03*
X0059100Y0116433D03*
D12*
X0064100Y0126433D03*
X0089100Y0136433D03*
X0139100Y0126433D03*
X0164100Y0136433D03*
X0214100Y0126433D03*
X0239100Y0136433D03*
X0289100Y0126433D03*
X0314100Y0136433D03*
X0364100Y0126433D03*
X0389100Y0136433D03*
X0364100Y0201433D03*
X0389100Y0211433D03*
X0439100Y0201433D03*
X0464100Y0211433D03*
X0514100Y0201433D03*
X0539100Y0211433D03*
X0589100Y0201433D03*
X0614100Y0211433D03*
X0664100Y0201433D03*
X0689100Y0211433D03*
X0739100Y0201433D03*
X0764100Y0211433D03*
X0814100Y0201433D03*
X0839100Y0211433D03*
X0889100Y0201433D03*
X0914100Y0211433D03*
X0889100Y0276433D03*
X0914100Y0286433D03*
X0839100Y0286433D03*
X0814100Y0276433D03*
X0764100Y0286433D03*
X0739100Y0276433D03*
X0689100Y0286433D03*
X0664100Y0276433D03*
X0614100Y0286433D03*
X0589100Y0276433D03*
X0539100Y0286433D03*
X0514100Y0276433D03*
X0464100Y0286433D03*
X0439100Y0276433D03*
X0389100Y0286433D03*
X0364100Y0276433D03*
X0314100Y0286433D03*
X0289100Y0276433D03*
X0239100Y0286433D03*
X0214100Y0276433D03*
X0164100Y0286433D03*
X0139100Y0276433D03*
X0089100Y0286433D03*
X0064100Y0276433D03*
X0089100Y0211433D03*
X0064100Y0201433D03*
X0139100Y0201433D03*
X0164100Y0211433D03*
X0214100Y0201433D03*
X0239100Y0211433D03*
X0289100Y0201433D03*
X0314100Y0211433D03*
X0589100Y0126433D03*
X0614100Y0136433D03*
X0664100Y0126433D03*
X0689100Y0136433D03*
X0739100Y0126433D03*
X0764100Y0136433D03*
X0814100Y0126433D03*
X0839100Y0136433D03*
X0889100Y0126433D03*
X0914100Y0136433D03*
X0889100Y0351433D03*
X0914100Y0361433D03*
X0839100Y0361433D03*
X0814100Y0351433D03*
X0764100Y0361433D03*
X0739100Y0351433D03*
X0689100Y0361433D03*
X0664100Y0351433D03*
X0614100Y0361433D03*
X0589100Y0351433D03*
X0539100Y0361433D03*
X0514100Y0351433D03*
X0464100Y0361433D03*
X0439100Y0351433D03*
X0389100Y0361433D03*
X0364100Y0351433D03*
X0314100Y0361433D03*
X0289100Y0351433D03*
X0239100Y0361433D03*
X0214100Y0351433D03*
X0164100Y0361433D03*
X0139100Y0351433D03*
X0089100Y0361433D03*
X0064100Y0351433D03*
D13*
X0501600Y0136433D03*
X0476600Y0126433D03*
D14*
X0444600Y0143933D03*
X0538600Y0143933D03*
D15*
X0095978Y0404429D03*
X0073222Y0404429D03*
D16*
X0031600Y0063933D03*
X0031600Y0403933D03*
X0951600Y0403933D03*
X0951600Y0063933D03*
M02*
